<svg version="1.1" id="Layer_1" xmlns="http://www.w3.org/2000/svg" xmlns:xlink="http://www.w3.org/1999/xlink" x="0px" y="0px"
	 width="100%" viewBox="0 0 892 892" xml:space="preserve">
<path fill="#FFFFFF" opacity="1.000000"
	d="
M893.000000,646.000000 
	C893.000000,728.323669 893.000000,810.647278 893.000000,892.978210 
	C595.711365,892.985474 298.422668,892.985474 1.067007,892.985474 
	C1.067007,595.746338 1.067007,298.492645 1.067007,1.119483 
	C298.218658,1.119483 595.437378,1.119483 893.000000,1.119483 
	C893.000000,205.027908 893.000000,409.056000 892.789856,613.864136 
	C890.230225,625.129456 889.435730,635.593933 893.000000,646.000000 
M383.541107,515.448547 
	C384.660248,515.666138 385.779358,515.883728 387.597260,516.494873 
	C397.389496,517.577515 405.684814,514.814941 412.604706,506.674866 
	C421.166351,495.715942 420.910553,481.616638 411.695740,471.454651 
	C404.903473,464.419983 396.916687,460.854980 386.275604,462.928711 
	C385.196930,463.284180 384.118225,463.639648 382.374817,464.014618 
	C381.232788,464.608215 380.090729,465.201813 378.264893,465.961853 
	C368.845276,471.530670 363.931976,479.853973 364.485168,490.721741 
	C365.021240,501.252899 370.040436,509.305389 380.501617,514.199158 
	C381.334167,514.477112 382.166718,514.755127 383.541107,515.448547 
M457.409119,467.575531 
	C442.054810,479.917480 442.368835,501.699371 458.451447,512.302490 
	C460.613831,513.223328 462.776184,514.144165 465.511719,515.572327 
	C471.044006,517.127808 476.530243,517.448914 482.637115,514.976257 
	C485.083984,513.549255 487.530823,512.122192 490.580231,510.477386 
	C491.874786,509.210144 493.296478,508.047943 494.444031,506.659271 
	C504.729858,494.212036 501.478149,474.335968 487.402527,466.865295 
	C485.564056,465.927582 483.725616,464.989868 481.419373,463.708374 
	C475.918579,462.260712 470.424622,461.266663 464.259033,463.949646 
	C462.171143,465.076538 460.083252,466.203430 457.409119,467.575531 
M571.722412,510.918610 
	C585.917114,499.603882 585.563843,477.404449 570.659119,467.407593 
	C568.141052,466.253387 565.623047,465.099182 562.491638,463.490112 
	C558.657959,463.317627 554.824341,463.145142 550.204285,462.920166 
	C547.167664,464.088074 544.131104,465.255981 540.503418,466.664795 
	C523.033203,479.116302 523.823608,503.631836 542.473633,513.547058 
	C545.304138,514.380127 548.134644,515.213196 551.625305,516.463623 
	C555.076477,516.194275 558.527649,515.924927 562.671326,515.612305 
	C565.472717,514.112732 568.274048,512.613159 571.722412,510.918610 
M667.842407,453.709656 
	C666.939148,458.136230 666.035950,462.562775 664.867798,467.702881 
	C644.955811,539.793884 616.425537,607.846436 570.412537,668.288025 
	C557.582764,683.874695 542.883240,697.241150 524.148865,706.872314 
	C507.545105,714.812622 490.160400,716.799866 471.498444,713.254211 
	C464.374603,711.081848 457.250793,708.909485 449.642151,706.251587 
	C441.271332,701.609131 432.900513,696.966736 424.170013,691.794312 
	C414.050629,683.453735 403.307159,675.742981 394.030365,666.551941 
	C387.806885,660.385986 382.690460,658.631348 374.318970,661.851807 
	C361.064026,666.950928 347.255432,670.610718 333.306732,674.997314 
	C333.861969,677.707031 334.346649,680.072632 334.709503,683.262268 
	C335.487579,688.167297 336.064758,693.114380 337.080292,697.969788 
	C340.533508,714.480164 344.224396,730.932617 351.971283,746.852844 
	C362.206512,768.823181 377.089478,786.009155 401.338654,792.618652 
	C421.375916,798.080078 441.382751,795.954163 461.957123,790.344543 
	C464.693146,789.688599 467.457397,789.131592 470.160797,788.361267 
	C497.390045,780.602722 523.026123,768.991821 548.823547,755.985413 
	C560.268494,749.817444 571.713501,743.649475 583.847290,737.229187 
	C595.896301,730.105896 607.945312,722.982544 620.705688,715.977600 
	C629.162354,710.696655 637.619019,705.415710 646.749451,699.948608 
	C652.551819,695.992554 658.354187,692.036499 664.846619,687.997009 
	C670.380493,684.042114 675.914368,680.087219 681.917358,675.674011 
	C690.304199,669.124695 698.690979,662.575378 707.698975,655.782715 
	C709.928101,653.838745 712.310425,652.042664 714.357544,649.922913 
	C720.364258,643.703613 726.237732,637.355591 732.744202,630.773132 
	C737.224792,624.879028 741.705444,618.984863 746.766846,612.747131 
	C749.989929,606.213928 753.888550,599.921204 756.314697,593.104309 
	C765.086609,568.456848 760.855957,545.695007 745.081421,524.197815 
	C742.743042,520.792114 740.404663,517.386414 737.830200,513.345764 
	C734.138977,509.264923 730.447815,505.184052 726.485657,500.520966 
	C724.519348,498.431915 722.553101,496.342865 721.118774,493.752075 
	C730.422485,487.193634 739.726196,480.635193 749.679871,473.867310 
	C752.096191,471.861542 754.512451,469.855774 757.618835,467.846680 
	C767.451965,459.241760 777.285034,450.636841 787.708740,441.747101 
	C791.863342,437.521240 796.017883,433.295410 800.744080,428.746124 
	C804.890259,423.184937 809.036438,417.623749 813.752808,411.710358 
	C817.519714,403.476746 821.286621,395.243134 825.615295,386.501770 
	C826.406738,382.792542 827.560120,379.118866 827.928528,375.368073 
	C829.770996,356.609192 824.612122,339.611145 814.431824,323.987701 
	C799.292969,300.754547 778.904480,282.729187 756.462463,265.784943 
	C752.076660,262.489014 747.820374,259.001221 743.277893,255.937607 
	C734.114685,249.757614 724.795959,243.808304 715.101685,237.203720 
	C703.435669,230.051056 691.769592,222.898392 679.706055,215.208664 
	C670.586426,210.067352 661.466858,204.926041 651.829224,199.289825 
	C650.057190,198.453781 648.241699,197.697998 646.520630,196.767761 
	C639.329834,192.881287 632.167358,188.942444 624.557251,184.494644 
	C610.369934,177.665863 596.266846,170.653275 581.955688,164.094788 
	C575.850891,161.297104 569.311523,159.447815 562.333191,156.858566 
	C560.206604,155.922928 558.079956,154.987274 555.371338,153.603500 
	C554.291199,153.199127 553.239197,152.680023 552.126709,152.407806 
	C538.088318,148.972946 524.041199,145.573654 509.174805,141.981461 
	C504.447723,141.673218 499.720673,141.364975 494.072479,140.897400 
	C483.796539,140.572601 473.743805,141.762497 463.361298,145.474030 
	C450.275482,150.345383 439.791748,158.675415 431.475037,169.764801 
	C417.581421,188.290298 410.911499,209.782364 406.008240,232.830643 
	C404.037933,244.327042 402.067627,255.823441 399.340637,267.264343 
	C375.256348,256.427460 351.483429,244.815521 326.997803,234.977539 
	C303.766754,225.643661 279.468628,219.882660 254.026672,222.068924 
	C242.999985,223.016479 232.450409,225.756714 222.397156,232.145966 
	C217.132751,236.717728 211.868347,241.289474 206.064377,246.199875 
	C202.647125,251.108276 199.229874,256.016663 195.241684,261.309265 
	C192.195557,268.202393 189.149445,275.095551 185.667862,282.599304 
	C183.064606,292.046814 180.461334,301.494293 177.382889,311.527618 
	C175.569946,323.011597 173.757004,334.495544 171.635635,346.733459 
	C171.050385,353.145660 170.465118,359.557892 169.509430,366.692688 
	C168.740356,380.361755 167.971268,394.030823 167.055954,408.536652 
	C166.841110,416.501862 166.444168,424.467224 166.452835,432.432220 
	C166.466873,445.341400 166.747009,458.250275 166.760193,472.064117 
	C167.293808,486.021240 167.827408,499.978363 168.279129,514.765442 
	C168.404266,515.576355 168.529419,516.387268 168.458786,517.778381 
	C168.621170,518.566895 168.783554,519.355408 168.824799,521.037048 
	C169.294022,526.368774 169.763229,531.700500 170.121140,537.665771 
	C170.202942,538.079529 170.284760,538.493225 170.292694,539.651489 
	C170.449310,540.108154 170.605927,540.564819 170.669281,541.804993 
	C171.790482,550.474915 172.310852,559.275879 174.166931,567.785522 
	C177.332230,582.297668 181.336197,596.626831 184.989777,611.791870 
	C187.312241,617.462952 189.355362,623.268433 192.006851,628.781311 
	C202.044785,649.651672 217.061172,665.086853 240.035782,671.354614 
	C258.334106,676.346497 276.617157,674.407532 294.816437,670.589783 
	C295.814941,670.380249 296.997437,669.065430 297.340698,668.018066 
	C301.266449,656.038940 305.045837,644.011841 309.287811,631.387329 
	C311.526459,624.260254 313.765106,617.133179 316.458496,609.450073 
	C318.596863,602.998901 320.530182,596.469421 322.952179,590.126526 
	C324.358978,586.442383 323.705475,583.771667 321.438843,580.608765 
	C305.074677,557.773926 290.078583,534.089844 277.819366,508.751343 
	C277.117920,507.301575 276.037659,506.035095 275.251465,504.101501 
	C275.130371,503.737579 275.009277,503.373657 274.856964,502.284302 
	C267.018097,485.221436 261.463928,467.441589 258.229126,448.046844 
	C256.674683,432.801910 257.349548,417.769073 262.891907,402.616272 
	C267.362732,389.527252 276.511688,379.536652 285.766479,369.061127 
	C297.175171,361.662811 308.583832,354.264526 320.719666,346.961182 
	C330.480804,342.989746 340.241943,339.018311 350.796021,335.132599 
	C360.874634,332.369354 370.953247,329.606110 381.820251,326.887482 
	C386.819794,325.719177 391.819366,324.550873 397.603668,323.420990 
	C414.363953,320.886749 431.105133,318.215973 447.891479,315.868134 
	C458.395111,314.399078 468.966766,313.416321 480.352081,312.496429 
	C483.574219,312.270630 486.796356,312.044861 490.906219,311.901764 
	C497.041565,311.603638 503.174927,311.110870 509.312683,311.048096 
	C521.908447,310.919220 534.506653,311.020782 547.801575,311.475250 
	C560.815796,313.174652 573.830017,314.874084 587.507996,316.890137 
	C597.158020,319.938385 607.124207,322.240967 616.399170,326.173706 
	C645.020142,338.309448 663.737976,359.279572 668.998474,390.381042 
	C671.086670,402.726959 670.608032,415.507019 671.087769,428.925690 
	C670.097473,436.944122 669.107178,444.962555 667.842407,453.709656 
M518.767395,698.002747 
	C520.153748,697.515198 521.769592,697.333252 522.890442,696.491943 
	C532.329041,689.407959 541.797668,682.353088 550.984558,674.950928 
	C554.063232,672.470398 556.353638,669.011597 559.607666,665.708130 
	C561.685852,663.359314 564.049988,661.204163 565.794128,658.629089 
	C574.877747,645.218140 583.999756,631.824951 592.678223,618.152466 
	C595.741089,613.327026 594.408142,609.968628 589.282532,607.231323 
	C585.723389,605.330688 581.660645,602.503357 578.124023,602.884521 
	C573.265076,603.408142 568.475464,606.190063 564.034546,608.679443 
	C549.757080,616.682922 534.689697,622.520081 518.710266,625.951965 
	C511.515808,627.497131 504.239288,628.660400 496.063049,630.000671 
	C486.154022,629.353455 476.179657,629.216248 466.348938,627.957458 
	C442.628662,624.920227 420.908356,616.035278 400.450592,603.929871 
	C384.989014,594.780823 370.765961,583.973145 357.347626,571.997375 
	C337.702209,554.463989 319.803406,535.355713 304.170502,514.192871 
	C295.611267,502.605865 287.676422,490.558411 279.382080,478.773438 
	C278.570465,477.620300 277.210052,476.853424 276.104401,475.907227 
	C275.769043,476.253998 275.433685,476.600769 275.098328,476.947540 
	C281.596863,495.751221 290.319366,513.589417 300.407990,530.660828 
	C309.001404,545.202209 318.380920,559.334595 328.259552,573.037354 
	C333.172302,579.851868 336.513550,585.951111 332.039856,594.005554 
	C331.896088,594.264343 332.002686,594.662109 331.442627,595.458252 
	C322.976532,621.058411 314.510437,646.658569 305.699249,673.302185 
	C308.302399,672.720215 309.870270,672.492432 311.359741,672.018372 
	C335.382324,664.371826 359.401520,656.714539 383.400391,648.993958 
	C386.063080,648.137329 388.144623,647.733521 390.633759,649.994934 
	C401.554230,659.916382 412.312347,670.085022 423.884766,679.205444 
	C444.826233,695.709961 467.900085,707.538330 495.628632,704.761475 
	C503.239807,703.999268 510.561371,700.344910 518.767395,698.002747 
z"/>
<path fill="#9A36DA" opacity="1.000000" stroke="#9A36DA" 
	d="
M893.000000,645.531372 
	C889.435730,635.593933 890.230225,625.129456 892.789856,614.322083 
	C893.000000,624.354248 893.000000,634.708435 893.000000,645.531372 
z"/>
<path fill="#C030F6" opacity="1.000000" stroke="#C030F6" 
	d="
M671.298096,428.089417 
	C670.608032,415.507019 671.086670,402.726959 668.998474,390.381042 
	C663.737976,359.279572 645.020142,338.309448 616.399170,326.173706 
	C607.124207,322.240967 597.158020,319.938385 587.213562,316.313171 
	C586.669434,314.620117 586.661255,313.371521 586.132629,312.408478 
	C580.908386,302.890564 575.730286,293.343262 570.282654,283.953094 
	C560.784851,267.581726 551.057434,251.343689 541.519287,234.995499 
	C534.803772,223.485214 528.377502,211.804199 521.539307,200.368515 
	C519.119080,196.321075 515.862000,192.773987 513.135010,188.698120 
	C515.864807,185.587494 518.411804,182.744232 521.034668,179.972839 
	C531.150452,169.284241 542.886902,160.769852 555.953369,154.051620 
	C558.079956,154.987274 560.206604,155.922928 562.708923,157.348923 
	C567.067383,161.223816 571.050171,164.608337 574.761353,168.206146 
	C574.574097,169.337891 574.376709,170.413895 574.788147,171.149414 
	C577.592896,176.164032 580.555908,181.089691 583.411072,186.076569 
	C590.515991,198.486069 597.601929,210.906494 604.674377,223.334564 
	C611.705444,235.690140 618.660889,248.089020 625.741455,260.416138 
	C632.802673,272.709473 639.967896,284.943176 647.106384,297.192017 
	C652.597900,306.614685 658.118042,316.020660 663.626770,325.433289 
	C667.202209,331.542480 670.884277,337.592010 674.334900,343.770844 
	C681.654724,356.877838 688.670959,370.157562 696.163696,383.163635 
	C701.746948,392.855072 708.094666,402.104767 713.721680,411.772552 
	C721.669250,425.427216 729.250061,439.295074 737.019104,453.054016 
	C740.987244,460.081635 745.024048,467.070435 749.029907,474.076721 
	C739.726196,480.635193 730.422485,487.193634 720.592407,493.880127 
	C719.428650,493.570404 718.791138,493.132660 718.019409,492.420441 
	C716.923767,491.095856 715.962402,490.045746 714.996399,488.621704 
	C714.717834,487.302216 714.664612,486.205658 714.136597,485.434052 
	C707.268250,475.396393 700.608948,465.198303 693.334473,455.460876 
	C686.328918,446.083160 678.669983,437.193512 671.298096,428.089417 
z"/>
<path fill="#F4EEF7" opacity="1.000000" stroke="#F4EEF7" 
	d="
M331.992554,594.995117 
	C332.002686,594.662109 331.896088,594.264343 332.039856,594.005554 
	C336.513550,585.951111 333.172302,579.851868 328.259552,573.037354 
	C318.380920,559.334595 309.001404,545.202209 300.407990,530.660828 
	C290.319366,513.589417 281.596863,495.751221 275.098328,476.947540 
	C275.433685,476.600769 275.769043,476.253998 276.104401,475.907227 
	C277.210052,476.853424 278.570465,477.620300 279.382080,478.773438 
	C287.676422,490.558411 295.611267,502.605865 304.170502,514.192871 
	C319.803406,535.355713 337.702209,554.463989 357.347626,571.997375 
	C370.765961,583.973145 384.989014,594.780823 400.450592,603.929871 
	C420.908356,616.035278 442.628662,624.920227 466.348938,627.957458 
	C476.179657,629.216248 486.154022,629.353455 496.776093,630.276123 
	C499.526703,631.149292 501.761688,631.393494 503.569214,632.403137 
	C514.062195,638.264038 524.432373,644.344360 534.892700,650.264465 
	C538.715393,652.427917 542.867432,654.058838 546.516235,656.467407 
	C550.876526,659.345581 554.858521,662.796936 559.004395,666.000000 
	C556.353638,669.011597 554.063232,672.470398 550.984558,674.950928 
	C541.797668,682.353088 532.329041,689.407959 522.890442,696.491943 
	C521.769592,697.333252 520.153748,697.515198 518.239624,697.703491 
	C515.002258,695.538879 512.422119,693.441101 509.561157,691.847412 
	C495.508301,684.019592 481.356110,676.370300 467.285217,668.574585 
	C443.792664,655.558960 420.334503,642.481262 396.863220,629.427185 
	C382.520294,621.450134 368.252502,613.333862 353.807343,605.546509 
	C346.704071,601.717163 339.274475,598.493103 331.992554,594.995117 
z"/>
<path fill="#C532F7" opacity="1.000000" stroke="#C532F7" 
	d="
M749.354858,473.972046 
	C745.024048,467.070435 740.987244,460.081635 737.019104,453.054016 
	C729.250061,439.295074 721.669250,425.427216 713.721680,411.772552 
	C708.094666,402.104767 701.746948,392.855072 696.163696,383.163635 
	C688.670959,370.157562 681.654724,356.877838 674.334900,343.770844 
	C670.884277,337.592010 667.202209,331.542480 663.626770,325.433289 
	C658.118042,316.020660 652.597900,306.614685 647.106384,297.192017 
	C639.967896,284.943176 632.802673,272.709473 625.741455,260.416138 
	C618.660889,248.089020 611.705444,235.690140 604.674377,223.334564 
	C597.601929,210.906494 590.515991,198.486069 583.411072,186.076569 
	C580.555908,181.089691 577.592896,176.164032 574.788147,171.149414 
	C574.376709,170.413895 574.574097,169.337891 575.060791,168.354126 
	C583.343018,174.831268 591.561035,180.870010 598.663513,188.017273 
	C615.254761,204.713242 631.346497,221.907288 647.557068,238.978851 
	C651.533691,243.166733 655.189758,247.658981 659.140991,252.314514 
	C664.659241,259.986359 670.216553,267.227051 675.366455,274.746796 
	C693.424805,301.114929 709.103149,328.798889 722.127380,358.038177 
	C732.428467,381.164154 740.768738,404.937531 747.519226,429.277649 
	C751.054382,442.024536 753.817139,454.985657 756.928711,467.850006 
	C754.512451,469.855774 752.096191,471.861542 749.354858,473.972046 
z"/>
<path fill="#EFE7F4" opacity="1.000000" stroke="#EFE7F4" 
	d="
M331.717590,595.226685 
	C339.274475,598.493103 346.704071,601.717163 353.807343,605.546509 
	C368.252502,613.333862 382.520294,621.450134 396.863220,629.427185 
	C420.334503,642.481262 443.792664,655.558960 467.285217,668.574585 
	C481.356110,676.370300 495.508301,684.019592 509.561157,691.847412 
	C512.422119,693.441101 515.002258,695.538879 517.863831,697.710938 
	C510.561371,700.344910 503.239807,703.999268 495.628632,704.761475 
	C467.900085,707.538330 444.826233,695.709961 423.884766,679.205444 
	C412.312347,670.085022 401.554230,659.916382 390.633759,649.994934 
	C388.144623,647.733521 386.063080,648.137329 383.400391,648.993958 
	C359.401520,656.714539 335.382324,664.371826 311.359741,672.018372 
	C309.870270,672.492432 308.302399,672.720215 305.699249,673.302185 
	C314.510437,646.658569 322.976532,621.058411 331.717590,595.226685 
z"/>
<path fill="#FD4A38" opacity="1.000000" stroke="#FD4A38" 
	d="
M461.144470,790.426208 
	C441.382751,795.954163 421.375916,798.080078 401.338654,792.618652 
	C377.089478,786.009155 362.206512,768.823181 351.977448,746.075317 
	C352.415039,743.189392 352.846497,741.080933 353.554413,737.621399 
	C360.992737,741.711365 367.240723,745.146790 374.031128,748.880432 
	C375.991089,747.976501 379.190094,746.501099 382.642487,744.908875 
	C381.221375,742.421753 379.005188,739.903809 378.301086,737.017090 
	C376.986969,731.629395 382.380310,733.850098 384.654999,732.319214 
	C385.326080,729.857544 382.893219,725.820251 387.612061,725.326965 
	C392.693756,724.795898 393.780396,722.466003 391.593109,718.087891 
	C391.365753,717.632874 391.562592,716.965881 391.562592,715.824280 
	C395.837372,718.287598 399.621796,720.468445 403.406250,722.649231 
	C403.177765,720.504028 402.670319,718.273438 401.405304,717.692444 
	C394.181305,714.374695 395.283203,707.465393 394.059814,701.586243 
	C393.558502,699.177124 394.672485,697.490845 397.316528,698.065552 
	C400.394775,698.734558 403.373444,699.861816 407.479614,701.123291 
	C408.956635,698.952393 410.979065,695.979858 413.375671,693.006592 
	C414.498291,693.009583 415.246704,693.013367 415.996887,693.403198 
	C416.412354,695.434143 416.826080,697.079041 417.351440,699.167664 
	C419.172302,698.204346 420.400024,697.554810 421.632355,696.902893 
	C422.003204,697.840820 422.382477,698.800110 422.760132,699.755249 
	C428.175140,698.036926 423.969482,695.269287 424.140015,692.877197 
	C424.283295,692.702698 424.529694,692.324280 424.529694,692.324280 
	C432.900513,696.966736 441.271332,701.609131 449.713928,706.887817 
	C449.547241,712.881287 448.900970,718.259216 449.172455,723.590454 
	C449.519989,730.415710 448.018311,731.966431 441.281433,730.661804 
	C439.370087,730.291626 437.326355,730.605164 435.343323,730.605164 
	C435.311371,731.126343 435.279419,731.647461 435.247437,732.168640 
	C440.485535,734.374573 438.332184,744.095764 448.543030,741.906982 
	C446.330383,745.901245 445.176971,748.317444 443.703827,750.519775 
	C442.793579,751.880615 441.396545,752.915771 440.218079,754.097168 
	C441.845703,755.068115 443.369720,756.330444 445.121185,756.953003 
	C449.572479,758.535095 450.976440,761.095825 448.808075,765.096863 
	C447.258636,767.955872 448.504120,769.498108 450.784027,770.696289 
	C451.605377,771.127991 452.752716,770.887329 453.712128,771.117126 
	C458.401306,772.240479 458.963470,774.224304 456.834717,778.436523 
	C456.123474,779.843933 457.047424,782.333923 457.740479,784.129639 
	C458.592651,786.337524 459.985413,788.336792 461.144470,790.426208 
z"/>
<path fill="#B62DF7" opacity="1.000000" stroke="#B62DF7" 
	d="
M512.987000,188.998474 
	C515.862000,192.773987 519.119080,196.321075 521.539307,200.368515 
	C528.377502,211.804199 534.803772,223.485214 541.519287,234.995499 
	C551.057434,251.343689 560.784851,267.581726 570.282654,283.953094 
	C575.730286,293.343262 580.908386,302.890564 586.132629,312.408478 
	C586.661255,313.371521 586.669434,314.620117 586.881714,316.154846 
	C573.830017,314.874084 560.815796,313.174652 547.285339,310.949585 
	C533.247559,301.016571 519.731079,291.601929 506.184418,282.230927 
	C505.692505,281.890594 504.904449,281.978485 504.048706,281.590149 
	C492.250061,274.520172 480.657104,267.726898 469.006653,260.705444 
	C468.949158,260.477264 468.840607,260.019318 469.137817,259.823914 
	C477.628937,244.091934 485.822845,228.555298 494.316406,212.862717 
	C500.739685,204.804001 506.863342,196.901245 512.987000,188.998474 
z"/>
<path fill="#D154F7" opacity="1.000000" stroke="#D154F7" 
	d="
M757.273804,467.848328 
	C753.817139,454.985657 751.054382,442.024536 747.519226,429.277649 
	C740.768738,404.937531 732.428467,381.164154 722.127380,358.038177 
	C709.103149,328.798889 693.424805,301.114929 675.366455,274.746796 
	C670.216553,267.227051 664.659241,259.986359 659.138184,251.935333 
	C658.353577,249.564728 657.929932,247.757584 657.053345,246.206390 
	C646.723755,227.926819 636.270813,209.716644 626.036072,191.384491 
	C625.051086,189.620041 625.312012,187.159927 624.994507,185.022797 
	C632.167358,188.942444 639.329834,192.881287 646.520630,196.767761 
	C648.241699,197.697998 650.057190,198.453781 651.762695,199.770920 
	C651.669373,201.818954 651.074646,203.683380 651.712830,204.902069 
	C654.695129,210.596786 658.073181,216.082428 661.199890,221.703918 
	C663.507324,225.852509 665.492432,230.185028 667.890259,234.277893 
	C673.310364,243.529510 679.157349,252.539413 684.347656,261.915039 
	C690.336182,272.732452 695.529968,283.991821 701.576904,294.774414 
	C707.647339,305.598999 714.561035,315.948547 720.713318,326.729889 
	C729.699768,342.477814 738.270691,358.462311 747.162476,374.265076 
	C749.798218,378.949371 753.172729,383.221924 755.750671,387.933777 
	C759.015564,393.901154 761.632141,400.221527 764.854187,406.214478 
	C769.727783,415.279297 774.736572,424.279724 779.994751,433.125122 
	C781.918823,436.361816 784.718079,439.078247 787.118164,442.031982 
	C777.285034,450.636841 767.451965,459.241760 757.273804,467.848328 
z"/>
<path fill="#D55BF7" opacity="1.000000" stroke="#D55BF7" 
	d="
M787.413452,441.889526 
	C784.718079,439.078247 781.918823,436.361816 779.994751,433.125122 
	C774.736572,424.279724 769.727783,415.279297 764.854187,406.214478 
	C761.632141,400.221527 759.015564,393.901154 755.750671,387.933777 
	C753.172729,383.221924 749.798218,378.949371 747.162476,374.265076 
	C738.270691,358.462311 729.699768,342.477814 720.713318,326.729889 
	C714.561035,315.948547 707.647339,305.598999 701.576904,294.774414 
	C695.529968,283.991821 690.336182,272.732452 684.347656,261.915039 
	C679.157349,252.539413 673.310364,243.529510 667.890259,234.277893 
	C665.492432,230.185028 663.507324,225.852509 661.199890,221.703918 
	C658.073181,216.082428 654.695129,210.596786 651.712830,204.902069 
	C651.074646,203.683380 651.669373,201.818954 652.021667,200.018372 
	C661.466858,204.926041 670.586426,210.067352 679.876953,215.875702 
	C680.644714,218.243469 681.011963,220.071793 681.874634,221.624924 
	C689.363159,235.106888 696.981934,248.516495 704.482666,261.991730 
	C718.026794,286.323914 731.441406,310.728424 745.047974,335.025543 
	C761.171448,363.817108 777.394592,392.553223 793.717163,421.232208 
	C795.366699,424.130524 797.997131,426.470490 800.172424,429.069580 
	C796.017883,433.295410 791.863342,437.521240 787.413452,441.889526 
z"/>
<path fill="#2B5FC1" opacity="1.000000" stroke="#2B5FC1" 
	d="
M262.499359,403.161987 
	C257.349548,417.769073 256.674683,432.801910 257.787231,448.520294 
	C252.882980,450.762817 249.838089,448.661255 247.161911,445.352966 
	C245.605743,443.429230 243.980789,441.548157 242.253540,439.777893 
	C233.462921,430.768372 224.656921,421.773438 215.799683,412.829468 
	C210.141571,407.115936 204.265121,401.614899 198.700897,395.813019 
	C190.310059,387.063782 182.123917,378.118439 173.803314,369.301239 
	C172.633011,368.061096 171.194321,367.074219 169.879868,365.970093 
	C170.465118,359.557892 171.050385,353.145660 172.069107,346.178375 
	C176.996094,341.410278 181.489609,337.197266 186.373917,332.982483 
	C189.625931,332.384399 192.297760,331.205750 194.891296,334.277374 
	C199.354843,339.563690 204.160812,344.578918 209.038574,349.494049 
	C224.750504,365.326324 240.563751,381.058044 256.329498,396.836945 
	C258.411102,398.920319 260.443909,401.052460 262.499359,403.161987 
z"/>
<path fill="#DC6AF9" opacity="1.000000" stroke="#DC6AF9" 
	d="
M825.053528,387.009521 
	C821.286621,395.243134 817.519714,403.476746 813.100708,411.839478 
	C811.193787,410.757507 809.939026,409.546387 807.652283,407.339294 
	C804.733826,407.607056 802.850403,404.932007 801.259644,400.887207 
	C799.090088,395.370575 796.113647,390.143616 793.189697,384.957886 
	C788.911560,377.370667 784.472534,369.868958 779.903503,362.453125 
	C777.638489,358.776947 774.537231,355.584351 772.511047,351.799927 
	C769.148376,345.519104 766.418457,338.902588 763.273987,332.500153 
	C762.096985,330.103455 759.509766,328.003906 759.283691,325.606812 
	C758.479065,317.076874 752.472351,311.332275 748.931763,304.288330 
	C746.950928,300.347656 746.439270,296.243256 742.526367,292.646912 
	C738.014893,288.500366 736.155396,281.467041 733.149536,275.684570 
	C731.658508,272.816132 730.367615,269.823334 728.654175,267.095215 
	C725.453674,261.999420 721.848633,257.154053 718.731750,252.010666 
	C716.947571,249.066406 715.512390,245.827835 714.490540,242.544235 
	C714.069336,241.190857 715.145996,239.371338 715.541382,237.763855 
	C724.795959,243.808304 734.114685,249.757614 743.277893,255.937607 
	C747.820374,259.001221 752.076660,262.489014 756.727661,266.381561 
	C759.461487,272.434753 761.613037,278.063721 764.466248,283.311188 
	C770.024536,293.533691 776.068848,303.490692 781.733276,313.657196 
	C785.825684,321.002380 789.499573,328.580688 793.588501,335.927948 
	C802.680725,352.265259 811.875671,368.546143 821.181946,384.762115 
	C821.825073,385.882751 823.733521,386.277313 825.053528,387.009521 
z"/>
<path fill="#2449BB" opacity="1.000000" stroke="#2449BB" 
	d="
M166.914780,471.159302 
	C166.747009,458.250275 166.466873,445.341400 166.452835,432.432220 
	C166.444168,424.467224 166.841110,416.501862 167.530609,408.215240 
	C169.598221,409.023865 171.382843,409.960022 172.753525,411.314941 
	C182.729538,421.176331 192.622208,431.121979 202.541229,441.041016 
	C217.602112,456.101868 232.657928,471.167816 247.729736,486.217743 
	C249.780014,488.265015 251.478638,491.071167 255.261154,489.264923 
	C255.954330,488.933868 258.238068,490.023682 258.227386,490.415131 
	C258.068298,496.256805 262.026306,497.787903 266.583679,498.842316 
	C267.019806,498.943237 267.324677,499.519897 267.761108,499.726746 
	C270.124512,500.846985 272.510162,501.920288 274.888153,503.009735 
	C275.009277,503.373657 275.130371,503.737579 275.074280,504.699890 
	C272.741211,511.255829 270.479889,517.177979 268.462463,523.182068 
	C266.820465,528.068848 265.470642,533.053711 263.650635,538.049561 
	C261.125946,540.241821 259.223328,540.184937 257.167175,537.735107 
	C254.716675,534.815491 252.066742,532.049561 249.361496,529.359619 
	C226.145432,506.274200 202.887115,483.231262 179.671310,460.145599 
	C176.694305,457.185303 173.888626,454.052765 170.961548,450.629547 
	C170.261993,448.445923 169.604477,446.632721 168.946976,444.819550 
	C168.269577,444.929291 167.592178,445.039001 166.914780,445.148743 
	C166.914780,453.818939 166.914780,462.489105 166.914780,471.159302 
z"/>
<path fill="#192C99" opacity="1.000000" stroke="#192C99" 
	d="
M308.864258,631.997498 
	C305.045837,644.011841 301.266449,656.038940 297.340698,668.018066 
	C296.997437,669.065430 295.814941,670.380249 294.816437,670.589783 
	C276.617157,674.407532 258.334106,676.346497 240.035782,671.354614 
	C217.061172,665.086853 202.044785,649.651672 192.006851,628.781311 
	C189.355362,623.268433 187.312241,617.462952 185.037170,611.102661 
	C185.959518,610.659241 187.144394,610.626221 187.658218,611.197205 
	C190.574432,614.437378 193.176407,617.967712 196.172028,621.127563 
	C202.727005,628.041931 209.451355,634.795654 216.111984,641.609680 
	C219.416733,644.990479 222.700821,648.392334 226.053635,651.724915 
	C229.590302,655.240173 233.197739,658.684204 237.615433,662.976746 
	C238.960693,657.584656 240.176788,653.533386 240.963364,649.400391 
	C243.179703,637.754944 245.270630,626.084656 247.291290,614.403442 
	C247.768631,611.644043 247.775864,608.803345 248.000732,605.588501 
	C248.668671,601.784668 249.335251,598.392334 250.370804,595.004272 
	C255.045380,598.396545 259.573792,601.541138 263.603302,605.230591 
	C269.353973,610.495911 273.567047,617.579529 281.710724,619.926697 
	C282.597046,620.182129 283.387238,620.979675 284.078766,621.669312 
	C290.256226,627.830688 297.088043,632.965454 304.709839,635.373901 
	C306.373535,634.021790 307.618896,633.009644 308.864258,631.997498 
z"/>
<path fill="#D861F8" opacity="1.000000" stroke="#D861F8" 
	d="
M715.321533,237.483780 
	C715.145996,239.371338 714.069336,241.190857 714.490540,242.544235 
	C715.512390,245.827835 716.947571,249.066406 718.731750,252.010666 
	C721.848633,257.154053 725.453674,261.999420 728.654175,267.095215 
	C730.367615,269.823334 731.658508,272.816132 733.149536,275.684570 
	C736.155396,281.467041 738.014893,288.500366 742.526367,292.646912 
	C746.439270,296.243256 746.950928,300.347656 748.931763,304.288330 
	C752.472351,311.332275 758.479065,317.076874 759.283691,325.606812 
	C759.509766,328.003906 762.096985,330.103455 763.273987,332.500153 
	C766.418457,338.902588 769.148376,345.519104 772.511047,351.799927 
	C774.537231,355.584351 777.638489,358.776947 779.903503,362.453125 
	C784.472534,369.868958 788.911560,377.370667 793.189697,384.957886 
	C796.113647,390.143616 799.090088,395.370575 801.259644,400.887207 
	C802.850403,404.932007 804.733826,407.607056 807.652283,407.339294 
	C809.939026,409.546387 811.193787,410.757507 812.815552,412.015564 
	C809.036438,417.623749 804.890259,423.184937 800.458252,428.907837 
	C797.997131,426.470490 795.366699,424.130524 793.717163,421.232208 
	C777.394592,392.553223 761.171448,363.817108 745.047974,335.025543 
	C731.441406,310.728424 718.026794,286.323914 704.482666,261.991730 
	C696.981934,248.516495 689.363159,235.106888 681.874634,221.624924 
	C681.011963,220.071793 680.644714,218.243469 680.075684,216.144241 
	C691.769592,222.898392 703.435669,230.051056 715.321533,237.483780 
z"/>
<path fill="#2753BD" opacity="1.000000" stroke="#2753BD" 
	d="
M274.872559,502.647034 
	C272.510162,501.920288 270.124512,500.846985 267.761108,499.726746 
	C267.324677,499.519897 267.019806,498.943237 266.583679,498.842316 
	C262.026306,497.787903 258.068298,496.256805 258.227386,490.415131 
	C258.238068,490.023682 255.954330,488.933868 255.261154,489.264923 
	C251.478638,491.071167 249.780014,488.265015 247.729736,486.217743 
	C232.657928,471.167816 217.602112,456.101868 202.541229,441.041016 
	C192.622208,431.121979 182.729538,421.176331 172.753525,411.314941 
	C171.382843,409.960022 169.598221,409.023865 167.603714,407.796875 
	C167.971268,394.030823 168.740356,380.361755 169.694641,366.331390 
	C171.194321,367.074219 172.633011,368.061096 173.803314,369.301239 
	C182.123917,378.118439 190.310059,387.063782 198.700897,395.813019 
	C204.265121,401.614899 210.141571,407.115936 215.799683,412.829468 
	C224.656921,421.773438 233.462921,430.768372 242.253540,439.777893 
	C243.980789,441.548157 245.605743,443.429230 247.161911,445.352966 
	C249.838089,448.661255 252.882980,450.762817 257.735291,448.980133 
	C261.463928,467.441589 267.018097,485.221436 274.872559,502.647034 
z"/>
<path fill="#2E6EC5" opacity="1.000000" stroke="#2E6EC5" 
	d="
M262.695618,402.889130 
	C260.443909,401.052460 258.411102,398.920319 256.329498,396.836945 
	C240.563751,381.058044 224.750504,365.326324 209.038574,349.494049 
	C204.160812,344.578918 199.354843,339.563690 194.891296,334.277374 
	C192.297760,331.205750 189.625931,332.384399 186.527313,332.681946 
	C193.527542,326.604095 200.765167,320.825073 208.393463,315.040009 
	C214.189819,312.686310 219.595505,310.338654 225.199554,308.267975 
	C227.219055,309.662933 229.327759,310.488831 230.811371,311.949585 
	C237.132935,318.173859 243.174896,324.681976 249.494766,330.907990 
	C260.399597,341.650909 271.505371,352.190796 282.333679,363.009186 
	C283.811279,364.485443 284.177765,367.073822 285.058685,369.147308 
	C276.511688,379.536652 267.362732,389.527252 262.695618,402.889130 
z"/>
<path fill="#FC443B" opacity="1.000000" stroke="#FC443B" 
	d="
M461.550781,790.385376 
	C459.985413,788.336792 458.592651,786.337524 457.740479,784.129639 
	C457.047424,782.333923 456.123474,779.843933 456.834717,778.436523 
	C458.963470,774.224304 458.401306,772.240479 453.712128,771.117126 
	C452.752716,770.887329 451.605377,771.127991 450.784027,770.696289 
	C448.504120,769.498108 447.258636,767.955872 448.808075,765.096863 
	C450.976440,761.095825 449.572479,758.535095 445.121185,756.953003 
	C443.369720,756.330444 441.845703,755.068115 440.218079,754.097168 
	C441.396545,752.915771 442.793579,751.880615 443.703827,750.519775 
	C445.176971,748.317444 446.330383,745.901245 448.543030,741.906982 
	C438.332184,744.095764 440.485535,734.374573 435.247437,732.168640 
	C435.279419,731.647461 435.311371,731.126343 435.343323,730.605164 
	C437.326355,730.605164 439.370087,730.291626 441.281433,730.661804 
	C448.018311,731.966431 449.519989,730.415710 449.172455,723.590454 
	C448.900970,718.259216 449.547241,712.881287 449.956329,707.130615 
	C457.250793,708.909485 464.374603,711.081848 471.799622,713.857422 
	C476.695679,722.090088 478.529877,731.225281 485.202209,737.784546 
	C486.802307,739.357544 487.511169,742.190369 487.904083,744.563965 
	C488.703766,749.395142 493.701691,753.260376 498.537933,752.301086 
	C511.379486,749.753906 523.545593,745.351501 534.992920,739.371582 
	C534.893860,740.229309 534.975708,740.924866 534.682373,741.168396 
	C532.339905,743.112610 529.323486,745.374573 531.637024,748.421692 
	C532.942871,750.141602 536.410400,750.722351 538.961914,750.879761 
	C543.025635,751.130432 546.338318,752.047729 548.109863,756.051941 
	C523.026123,768.991821 497.390045,780.602722 470.160797,788.361267 
	C467.457397,789.131592 464.693146,789.688599 461.550781,790.385376 
M454.528748,745.215149 
	C454.464111,744.523987 454.191345,743.292908 454.367004,743.225220 
	C456.126434,742.547058 457.959534,742.060242 459.771912,741.519470 
	C459.847931,740.958923 459.923950,740.398315 459.999939,739.837769 
	C455.922485,738.275269 451.845032,736.712830 446.303223,734.589233 
	C448.732178,739.528137 451.866608,742.915100 450.148926,747.417175 
	C450.041962,747.697449 450.496490,748.368164 450.855896,748.620789 
	C452.833191,750.010315 454.862152,751.326355 457.173920,752.867920 
	C458.563843,749.790344 458.729919,747.241821 454.528748,745.215149 
z"/>
<path fill="#1C2D9F" opacity="1.000000" stroke="#1C2D9F" 
	d="
M247.999359,606.000000 
	C247.775864,608.803345 247.768631,611.644043 247.291290,614.403442 
	C245.270630,626.084656 243.179703,637.754944 240.963364,649.400391 
	C240.176788,653.533386 238.960693,657.584656 237.615433,662.976746 
	C233.197739,658.684204 229.590302,655.240173 226.053635,651.724915 
	C222.700821,648.392334 219.416733,644.990479 216.111984,641.609680 
	C209.451355,634.795654 202.727005,628.041931 196.172028,621.127563 
	C193.176407,617.967712 190.574432,614.437378 187.658218,611.197205 
	C187.144394,610.626221 185.959518,610.659241 185.036209,610.723145 
	C181.336197,596.626831 177.332230,582.297668 174.166931,567.785522 
	C172.310852,559.275879 171.790482,550.474915 171.046539,541.410156 
	C173.054001,542.252502 174.702393,543.466736 176.309265,544.733582 
	C177.892471,545.981689 179.433594,547.283142 180.993195,548.561218 
	C182.336182,549.539673 182.862122,551.396545 184.025543,552.671936 
	C186.243561,555.103577 188.983704,557.057007 191.218811,559.475342 
	C194.541107,563.070007 197.055649,567.678467 200.925598,570.435486 
	C206.366608,574.311584 212.486160,577.118042 214.511444,584.257385 
	C214.640259,584.711426 215.610153,584.892700 216.136490,585.273132 
	C224.158737,591.071777 231.212921,597.819336 237.104446,605.834167 
	C239.014709,608.432861 241.772308,610.408752 244.194458,612.719177 
	C245.587189,610.259766 246.793289,608.129883 247.999359,606.000000 
z"/>
<path fill="#44B5DB" opacity="1.000000" stroke="#44B5DB" 
	d="
M223.085510,232.021683 
	C232.450409,225.756714 242.999985,223.016479 254.026672,222.068924 
	C279.468628,219.882660 303.766754,225.643661 326.997803,234.977539 
	C351.483429,244.815521 375.256348,256.427460 399.889832,267.515381 
	C400.867035,268.395630 401.295013,269.024902 401.362488,269.861847 
	C400.001282,275.352417 399.126068,280.664612 397.903656,285.895660 
	C397.629913,287.067047 396.071228,288.868011 395.222290,288.804291 
	C392.451080,288.596313 389.734497,287.660645 386.922729,286.631470 
	C383.163788,285.020508 379.477112,283.788574 375.794922,282.543427 
	C373.271240,281.690033 370.198456,281.410065 368.427582,279.748047 
	C367.234467,278.628296 367.884033,275.545197 367.693451,273.141113 
	C367.140228,273.276550 366.362152,273.465210 365.584991,273.657501 
	C356.554413,275.891785 355.143616,275.240540 350.970459,267.080933 
	C350.615540,266.386871 349.999298,265.593170 349.318604,265.334290 
	C340.482117,261.973633 331.633942,258.640106 322.734406,255.451355 
	C320.587646,254.682175 318.180237,254.661270 315.999268,253.963226 
	C303.795990,250.057343 291.723419,245.705841 279.410614,242.191879 
	C270.590332,239.674683 261.507629,237.982788 252.461243,236.377747 
	C242.718399,234.649109 232.881424,233.451157 223.085510,232.021683 
z"/>
<path fill="#327DC9" opacity="1.000000" stroke="#327DC9" 
	d="
M285.412598,369.104218 
	C284.177765,367.073822 283.811279,364.485443 282.333679,363.009186 
	C271.505371,352.190796 260.399597,341.650909 249.494766,330.907990 
	C243.174896,324.681976 237.132935,318.173859 230.811371,311.949585 
	C229.327759,310.488831 227.219055,309.662933 225.419128,307.997070 
	C236.293961,303.301270 247.147583,299.153351 258.402954,295.002197 
	C261.870209,294.328979 264.935730,293.658966 268.143921,293.289886 
	C284.396210,309.765686 300.522095,325.924438 316.585815,342.144684 
	C317.934998,343.506989 318.866821,345.282623 319.992523,346.866211 
	C308.583832,354.264526 297.175171,361.662811 285.412598,369.104218 
z"/>
<path fill="#1E3DAA" opacity="1.000000" stroke="#1E3DAA" 
	d="
M263.991241,537.995117 
	C265.470642,533.053711 266.820465,528.068848 268.462463,523.182068 
	C270.479889,517.177979 272.741211,511.255829 275.015411,504.990784 
	C276.037659,506.035095 277.117920,507.301575 277.819366,508.751343 
	C290.078583,534.089844 305.074677,557.773926 321.438843,580.608765 
	C323.705475,583.771667 324.358978,586.442383 322.952179,590.126526 
	C320.530182,596.469421 318.596863,602.998901 316.039612,609.463196 
	C312.462616,607.844177 309.354340,606.105469 306.136536,604.601135 
	C298.452637,601.008728 290.717102,597.526611 283.318665,593.841797 
	C284.375183,592.148804 286.099457,590.201416 285.662842,589.160217 
	C284.557281,586.524109 282.855713,583.872864 280.723785,581.982117 
	C274.431641,576.401794 267.900421,571.077087 261.250092,565.926941 
	C260.007996,564.965027 257.779907,565.276245 256.047546,564.617554 
	C258.722595,555.488525 261.356934,546.741821 263.991241,537.995117 
z"/>
<path fill="#FD8634" opacity="1.000000" stroke="#FD8634" 
	d="
M718.153687,492.694916 
	C718.791138,493.132660 719.428650,493.570404 720.326416,494.130981 
	C722.553101,496.342865 724.519348,498.431915 726.384521,501.027557 
	C723.490601,504.866821 721.217651,508.270752 723.902344,512.816467 
	C724.243652,513.394470 723.801453,514.425842 723.746155,515.248901 
	C723.420410,520.102417 723.121216,524.957886 722.775818,529.809998 
	C722.337891,535.963074 722.321716,542.193909 721.259644,548.239441 
	C720.431213,552.954468 718.283386,557.437683 717.032471,561.111755 
	C719.117310,564.881836 722.153381,568.216980 722.732239,571.934631 
	C723.557312,577.233765 722.506165,582.812134 722.408875,588.274048 
	C722.369446,590.491333 721.513794,593.409851 725.635803,593.254517 
	C726.164551,593.234619 727.104858,595.243530 727.283447,596.400757 
	C727.980286,600.914612 728.447449,605.463867 728.999146,610.443665 
	C728.237427,617.895813 726.616760,625.039246 732.163391,631.057983 
	C726.237732,637.355591 720.364258,643.703613 714.357544,649.922913 
	C712.310425,652.042664 709.928101,653.838745 707.070312,655.769653 
	C704.563782,654.313293 702.685913,652.870056 701.177856,651.711060 
	C702.229797,649.069397 703.482849,647.296204 703.567871,645.468628 
	C703.914246,638.018127 704.035156,630.549805 703.969543,623.090454 
	C703.935486,619.220154 703.279541,615.358948 703.015381,611.486023 
	C702.829468,608.760254 702.990967,606.004944 702.707214,603.293213 
	C702.345642,599.837708 705.193542,595.817810 700.854736,592.700684 
	C700.564514,590.987976 699.897644,589.358826 700.378418,588.209717 
	C701.538330,585.436829 703.234558,582.888245 704.045410,581.442383 
	C701.817322,577.241028 700.156921,574.110352 698.205017,570.429871 
	C700.440063,570.317200 701.824890,570.247437 702.489929,570.213928 
	C703.819397,567.357056 704.952271,564.922668 706.233459,562.169556 
	C702.714478,560.898132 709.219177,551.949219 700.174377,554.422729 
	C700.852783,550.131348 700.852783,550.131348 705.968811,550.245239 
	C705.495422,547.249512 705.031738,544.315002 704.568054,541.380554 
	C706.210938,539.432983 708.447510,536.418823 707.701111,535.123352 
	C706.323914,532.733154 705.256836,531.060181 706.915222,528.658447 
	C708.183960,528.858215 709.267395,529.028809 710.350769,529.199463 
	C710.464905,528.657288 710.578979,528.115112 710.693115,527.572998 
	C708.588562,527.075134 706.484009,526.577271 705.692993,526.390137 
	C704.472656,523.433655 703.160461,521.206665 702.682617,518.813110 
	C702.256348,516.677979 702.753845,514.358765 702.841248,512.120728 
	C702.894958,510.748016 702.944031,509.375122 703.153809,507.697510 
	C708.259583,502.493408 713.206604,497.594177 718.153687,492.694916 
z"/>
<path fill="#FD4F3A" opacity="1.000000" stroke="#FD4F3A" 
	d="
M413.001465,693.007324 
	C410.979065,695.979858 408.956635,698.952393 407.479614,701.123291 
	C403.373444,699.861816 400.394775,698.734558 397.316528,698.065552 
	C394.672485,697.490845 393.558502,699.177124 394.059814,701.586243 
	C395.283203,707.465393 394.181305,714.374695 401.405304,717.692444 
	C402.670319,718.273438 403.177765,720.504028 403.406250,722.649231 
	C399.621796,720.468445 395.837372,718.287598 391.562592,715.824280 
	C391.562592,716.965881 391.365753,717.632874 391.593109,718.087891 
	C393.780396,722.466003 392.693756,724.795898 387.612061,725.326965 
	C382.893219,725.820251 385.326080,729.857544 384.654999,732.319214 
	C382.380310,733.850098 376.986969,731.629395 378.301086,737.017090 
	C379.005188,739.903809 381.221375,742.421753 382.642487,744.908875 
	C379.190094,746.501099 375.991089,747.976501 374.031128,748.880432 
	C367.240723,745.146790 360.992737,741.711365 353.554413,737.621399 
	C352.846497,741.080933 352.415039,743.189392 351.967468,745.713684 
	C344.224396,730.932617 340.533508,714.480164 337.080292,697.969788 
	C336.064758,693.114380 335.487579,688.167297 334.859924,682.454468 
	C336.224457,681.224731 337.577332,680.223083 338.630157,680.475037 
	C345.344177,682.081909 351.921387,684.311829 358.675598,685.689575 
	C376.609192,689.347717 394.535217,693.236328 413.001465,693.007324 
z"/>
<path fill="#8B37D0" opacity="1.000000" stroke="#8B37D0" 
	d="
M464.040283,145.322464 
	C473.743805,141.762497 483.796539,140.572601 494.491760,141.340042 
	C494.089020,143.572372 493.157867,145.320801 492.462891,147.158539 
	C488.382233,157.949905 484.141296,168.687744 480.375977,179.589233 
	C476.933990,189.554642 473.661194,199.610977 471.044281,209.814590 
	C469.812866,214.616150 470.335724,219.860046 469.988739,224.898346 
	C469.688416,229.259705 469.354553,233.622070 468.855347,237.963287 
	C468.767334,238.728714 467.644501,239.319427 467.253693,240.115570 
	C465.714630,243.250748 462.159821,245.584671 464.258667,250.171799 
	C464.863586,251.493912 462.685913,254.089203 461.427429,256.087860 
	C456.391357,254.030838 451.711792,251.986725 446.814087,249.669632 
	C442.070007,247.228943 437.544098,245.061249 433.072998,242.562897 
	C434.477692,239.691269 436.093506,237.253891 437.130737,234.591141 
	C441.295715,223.898987 445.283722,213.137863 449.332001,202.400299 
	C450.320465,199.778473 451.552734,197.214142 452.218689,194.511459 
	C454.448822,185.461029 456.477905,176.360992 458.555115,167.273346 
	C458.618195,166.997391 458.335052,166.654922 458.259094,166.332687 
	C456.685974,159.663666 462.031525,155.364868 464.339539,150.157776 
	C465.402069,147.760620 465.313782,146.893539 464.040283,145.322464 
z"/>
<path fill="#41ADD9" opacity="1.000000" stroke="#41ADD9" 
	d="
M222.741333,232.083832 
	C232.881424,233.451157 242.718399,234.649109 252.461243,236.377747 
	C261.507629,237.982788 270.590332,239.674683 279.410614,242.191879 
	C291.723419,245.705841 303.795990,250.057343 315.999268,253.963226 
	C318.180237,254.661270 320.587646,254.682175 322.734406,255.451355 
	C331.633942,258.640106 340.482117,261.973633 349.318604,265.334290 
	C349.999298,265.593170 350.615540,266.386871 350.970459,267.080933 
	C355.143616,275.240540 356.554413,275.891785 365.584991,273.657501 
	C366.362152,273.465210 367.140228,273.276550 367.693451,273.141113 
	C367.884033,275.545197 367.234467,278.628296 368.427582,279.748047 
	C370.198456,281.410065 373.271240,281.690033 375.794922,282.543427 
	C379.477112,283.788574 383.163788,285.020508 386.468811,286.630737 
	C383.935425,286.979675 381.774902,287.058411 379.629120,286.915710 
	C365.417358,285.970734 351.208801,284.978241 336.794189,283.740204 
	C335.729889,283.322845 334.870636,283.166504 333.748840,282.805023 
	C331.883728,278.930023 329.287140,278.458557 325.275330,278.132416 
	C320.705078,277.760864 316.458038,274.268036 311.913086,272.547882 
	C303.174744,269.240540 294.477936,265.627441 285.460693,263.332458 
	C280.632812,262.103699 275.984253,260.688232 271.257080,259.147766 
	C260.157318,255.530624 248.749268,252.837799 237.415665,249.969727 
	C232.170959,248.642517 226.817505,247.733200 221.496155,246.725189 
	C218.515442,246.160553 215.512634,245.609985 212.494873,245.380463 
	C210.554642,245.232880 208.569138,245.680435 206.603928,245.861221 
	C211.868347,241.289474 217.132751,236.717728 222.741333,232.083832 
z"/>
<path fill="#F8F5FA" opacity="1.000000" stroke="#F8F5FA" 
	d="
M559.306030,665.854065 
	C554.858521,662.796936 550.876526,659.345581 546.516235,656.467407 
	C542.867432,654.058838 538.715393,652.427917 534.892700,650.264465 
	C524.432373,644.344360 514.062195,638.264038 503.569214,632.403137 
	C501.761688,631.393494 499.526703,631.149292 497.244568,630.274231 
	C504.239288,628.660400 511.515808,627.497131 518.710266,625.951965 
	C534.689697,622.520081 549.757080,616.682922 564.034546,608.679443 
	C568.475464,606.190063 573.265076,603.408142 578.124023,602.884521 
	C581.660645,602.503357 585.723389,605.330688 589.282532,607.231323 
	C594.408142,609.968628 595.741089,613.327026 592.678223,618.152466 
	C583.999756,631.824951 574.877747,645.218140 565.794128,658.629089 
	C564.049988,661.204163 561.685852,663.359314 559.306030,665.854065 
z"/>
<path fill="#8238CA" opacity="1.000000" stroke="#8238CA" 
	d="
M463.700806,145.398254 
	C465.313782,146.893539 465.402069,147.760620 464.339539,150.157776 
	C462.031525,155.364868 456.685974,159.663666 458.259094,166.332687 
	C458.335052,166.654922 458.618195,166.997391 458.555115,167.273346 
	C456.477905,176.360992 454.448822,185.461029 452.218689,194.511459 
	C451.552734,197.214142 450.320465,199.778473 449.332001,202.400299 
	C445.283722,213.137863 441.295715,223.898987 437.130737,234.591141 
	C436.093506,237.253891 434.477692,239.691269 432.735046,242.458313 
	C423.619568,239.137726 414.896790,235.591049 406.174042,232.044388 
	C410.911499,209.782364 417.581421,188.290298 431.475037,169.764801 
	C439.791748,158.675415 450.275482,150.345383 463.700806,145.398254 
z"/>
<path fill="#FD4042" opacity="1.000000" stroke="#FD4042" 
	d="
M548.466675,756.018677 
	C546.338318,752.047729 543.025635,751.130432 538.961914,750.879761 
	C536.410400,750.722351 532.942871,750.141602 531.637024,748.421692 
	C529.323486,745.374573 532.339905,743.112610 534.682373,741.168396 
	C534.975708,740.924866 534.893860,740.229309 535.185120,739.096191 
	C539.589539,734.298706 543.794739,730.148132 548.051392,725.655029 
	C552.641907,720.801819 557.559021,716.606140 561.638062,711.711853 
	C569.123169,702.730835 576.235779,693.429504 583.264893,684.082092 
	C587.412781,678.566284 591.102051,672.705566 595.406189,667.000977 
	C603.739563,669.632629 612.625488,668.407776 620.039917,673.406128 
	C618.687256,676.181274 617.344849,678.594299 615.698547,681.152710 
	C604.829651,692.909607 594.250244,704.508179 583.734314,716.163940 
	C583.078735,716.890564 582.573364,718.072083 582.588684,719.032532 
	C582.686584,725.183655 582.949707,731.332153 583.158508,737.481445 
	C571.713501,743.649475 560.268494,749.817444 548.466675,756.018677 
z"/>
<path fill="#1D35A8" opacity="1.000000" stroke="#1D35A8" 
	d="
M256.006836,565.000000 
	C257.779907,565.276245 260.007996,564.965027 261.250092,565.926941 
	C267.900421,571.077087 274.431641,576.401794 280.723785,581.982117 
	C282.855713,583.872864 284.557281,586.524109 285.662842,589.160217 
	C286.099457,590.201416 284.375183,592.148804 282.962219,593.806580 
	C273.004089,588.391479 263.718628,582.853394 253.938232,577.020142 
	C252.891937,580.220764 251.946884,583.111572 250.634735,585.960327 
	C248.128311,584.802246 245.547882,584.124023 243.928665,582.492065 
	C238.018951,576.536072 232.562988,570.131104 226.682587,564.144226 
	C220.841904,558.197876 214.566986,552.677917 208.728210,546.729797 
	C204.718063,542.644531 200.819122,538.374207 197.433838,533.772156 
	C193.843414,528.891418 186.490265,528.646606 184.148285,522.196045 
	C183.515274,520.452515 180.752655,519.526306 179.069931,518.103821 
	C178.001831,517.200928 177.115692,516.080994 176.160782,515.046509 
	C174.942245,513.726440 173.912964,511.652374 172.468124,511.309143 
	C171.369095,511.048035 169.749176,512.979553 168.361008,513.935486 
	C167.827408,499.978363 167.293808,486.021240 166.837494,471.611694 
	C166.914780,462.489105 166.914780,453.818939 166.914780,445.148743 
	C167.592178,445.039001 168.269577,444.929291 168.946976,444.819550 
	C169.604477,446.632721 170.261993,448.445923 170.997803,450.999084 
	C173.376617,457.968048 175.634354,464.213196 177.985352,470.423035 
	C186.069611,491.776459 197.087891,511.637268 210.104385,530.271118 
	C216.873306,539.961182 225.009079,548.780762 233.164139,557.390442 
	C239.197037,563.759644 246.258209,569.154907 253.142288,575.232178 
	C254.244095,571.296509 255.125458,568.148254 256.006836,565.000000 
z"/>
<path fill="#1B2EA4" opacity="1.000000" stroke="#1B2EA4" 
	d="
M168.320068,514.350464 
	C169.749176,512.979553 171.369095,511.048035 172.468124,511.309143 
	C173.912964,511.652374 174.942245,513.726440 176.160782,515.046509 
	C177.115692,516.080994 178.001831,517.200928 179.069931,518.103821 
	C180.752655,519.526306 183.515274,520.452515 184.148285,522.196045 
	C186.490265,528.646606 193.843414,528.891418 197.433838,533.772156 
	C200.819122,538.374207 204.718063,542.644531 208.728210,546.729797 
	C214.566986,552.677917 220.841904,558.197876 226.682587,564.144226 
	C232.562988,570.131104 238.018951,576.536072 243.928665,582.492065 
	C245.547882,584.124023 248.128311,584.802246 250.633224,586.373413 
	C250.666489,589.552490 250.334152,592.276245 250.001831,595.000000 
	C249.335251,598.392334 248.668671,601.784668 248.000732,605.588501 
	C246.793289,608.129883 245.587189,610.259766 244.194458,612.719177 
	C241.772308,610.408752 239.014709,608.432861 237.104446,605.834167 
	C231.212921,597.819336 224.158737,591.071777 216.136490,585.273132 
	C215.610153,584.892700 214.640259,584.711426 214.511444,584.257385 
	C212.486160,577.118042 206.366608,574.311584 200.925598,570.435486 
	C197.055649,567.678467 194.541107,563.070007 191.218811,559.475342 
	C188.983704,557.057007 186.243561,555.103577 184.025543,552.671936 
	C182.862122,551.396545 182.336182,549.539673 180.993195,548.561218 
	C179.433594,547.283142 177.892471,545.981689 176.309265,544.733582 
	C174.702393,543.466736 173.054001,542.252502 171.093170,541.018372 
	C170.605927,540.564819 170.449310,540.108154 170.490082,539.116272 
	C170.535797,538.064758 170.384125,537.548523 170.232452,537.032227 
	C169.763229,531.700500 169.294022,526.368774 168.912399,520.287781 
	C168.884857,518.758423 168.769714,517.978271 168.654572,517.198181 
	C168.529419,516.387268 168.404266,515.576355 168.320068,514.350464 
z"/>
<path fill="#E73A4F" opacity="1.000000" stroke="#E73A4F" 
	d="
M571.015625,667.989380 
	C616.425537,607.846436 644.955811,539.793884 665.262451,467.487427 
	C665.798645,471.835724 665.940186,476.399475 665.857910,481.141479 
	C664.505127,487.434998 663.618652,493.607391 662.194153,499.653015 
	C659.642517,510.482117 656.766968,521.234863 653.873779,532.353271 
	C649.968323,543.664368 646.456360,554.731567 642.394165,565.592957 
	C638.561462,575.840454 634.149719,585.871399 629.711914,596.208069 
	C628.984497,597.302979 628.511353,598.175171 628.095154,599.073730 
	C622.484985,611.186951 616.905518,623.314575 611.269409,635.415771 
	C608.220398,641.962219 605.077820,648.465210 601.698059,655.125000 
	C600.614075,656.173828 599.809448,657.085449 598.638123,658.036499 
	C595.881775,659.145996 593.553284,660.390198 591.090942,661.252380 
	C584.429565,663.584778 577.711304,665.754883 571.015625,667.989380 
z"/>
<path fill="#E071F9" opacity="1.000000" stroke="#E071F9" 
	d="
M825.334412,386.755646 
	C823.733521,386.277313 821.825073,385.882751 821.181946,384.762115 
	C811.875671,368.546143 802.680725,352.265259 793.588501,335.927948 
	C789.499573,328.580688 785.825684,321.002380 781.733276,313.657196 
	C776.068848,303.490692 770.024536,293.533691 764.466248,283.311188 
	C761.613037,278.063721 759.461487,272.434753 756.988037,266.606689 
	C778.904480,282.729187 799.292969,300.754547 814.431824,323.987701 
	C824.612122,339.611145 829.770996,356.609192 827.928528,375.368073 
	C827.560120,379.118866 826.406738,382.792542 825.334412,386.755646 
z"/>
<path fill="#358ACC" opacity="1.000000" stroke="#358ACC" 
	d="
M320.356079,346.913696 
	C318.866821,345.282623 317.934998,343.506989 316.585815,342.144684 
	C300.522095,325.924438 284.396210,309.765686 268.396057,293.009644 
	C279.670319,290.617706 290.835144,288.806976 302.150452,287.297974 
	C306.954407,291.972778 311.652466,296.299469 316.252197,300.728302 
	C326.447021,310.544312 336.623260,320.380249 346.721313,330.295380 
	C348.070038,331.619659 348.921387,333.450562 350.003052,335.046875 
	C340.241943,339.018311 330.480804,342.989746 320.356079,346.913696 
z"/>
<path fill="#F8413D" opacity="1.000000" stroke="#F8413D" 
	d="
M548.000000,725.997559 
	C543.794739,730.148132 539.589539,734.298706 535.192139,738.724609 
	C523.545593,745.351501 511.379486,749.753906 498.537933,752.301086 
	C493.701691,753.260376 488.703766,749.395142 487.904083,744.563965 
	C487.511169,742.190369 486.802307,739.357544 485.202209,737.784546 
	C478.529877,731.225281 476.695679,722.090088 472.104492,714.079956 
	C490.160400,716.799866 507.545105,714.812622 524.706909,707.033508 
	C528.264038,706.847839 530.700256,706.678528 531.798889,710.769775 
	C532.275146,712.543457 535.360107,713.972961 537.545532,714.837402 
	C540.039612,715.823975 542.851685,716.006775 546.142700,716.661621 
	C544.647400,719.690979 543.340881,722.337830 541.534424,725.997559 
	C544.244934,725.997559 546.122498,725.997559 548.000000,725.997559 
z"/>
<path fill="#9236D5" opacity="1.000000" stroke="#9236D5" 
	d="
M461.783997,256.100769 
	C462.685913,254.089203 464.863586,251.493912 464.258667,250.171799 
	C462.159821,245.584671 465.714630,243.250748 467.253693,240.115570 
	C467.644501,239.319427 468.767334,238.728714 468.855347,237.963287 
	C469.354553,233.622070 469.688416,229.259705 469.988739,224.898346 
	C470.335724,219.860046 469.812866,214.616150 471.044281,209.814590 
	C473.661194,199.610977 476.933990,189.554642 480.375977,179.589233 
	C484.141296,168.687744 488.382233,157.949905 492.462891,147.158539 
	C493.157867,145.320801 494.089020,143.572372 494.952332,141.419708 
	C499.720673,141.364975 504.447723,141.673218 509.580383,142.439270 
	C509.786560,146.350174 509.607361,149.804657 509.376465,153.255646 
	C509.298645,154.418564 509.339996,155.680313 508.896698,156.712067 
	C507.047607,161.015610 504.308502,165.077621 503.254852,169.548523 
	C501.734070,176.001663 502.004791,182.830292 498.259705,188.782501 
	C494.161316,195.296295 498.457123,203.908035 493.202972,210.286835 
	C492.865753,210.696274 493.717865,212.085327 494.016724,213.018677 
	C485.822845,228.555298 477.628937,244.091934 468.791504,259.823822 
	C466.026642,258.712982 463.905304,257.406891 461.783997,256.100769 
z"/>
<path fill="#3D9FD4" opacity="1.000000" stroke="#3D9FD4" 
	d="
M302.000000,286.996246 
	C290.835144,288.806976 279.670319,290.617706 268.253357,292.708710 
	C264.935730,293.658966 261.870209,294.328979 258.128082,294.712219 
	C252.501907,293.266449 247.596664,291.841797 242.593018,291.006622 
	C233.594116,289.504486 224.497665,288.573090 215.516922,286.980621 
	C209.857452,285.977112 204.387619,283.914886 198.732056,282.875092 
	C194.607574,282.116760 190.318848,282.251862 186.103333,281.988678 
	C189.149445,275.095551 192.195557,268.202393 195.988464,261.139893 
	C202.992630,261.104095 208.806702,263.107056 214.816376,264.529327 
	C226.248169,267.234802 238.184387,267.771484 249.662460,270.925110 
	C258.252167,273.285187 267.040344,274.936554 275.765350,276.784424 
	C279.927429,277.665924 284.319489,277.767548 288.300323,279.123749 
	C293.689697,280.959778 298.783997,283.662018 303.706604,286.015564 
	C302.938904,286.357727 302.469452,286.676971 302.000000,286.996246 
z"/>
<path fill="#3FA7D7" opacity="1.000000" stroke="#3FA7D7" 
	d="
M304.004883,285.992676 
	C298.783997,283.662018 293.689697,280.959778 288.300323,279.123749 
	C284.319489,277.767548 279.927429,277.665924 275.765350,276.784424 
	C267.040344,274.936554 258.252167,273.285187 249.662460,270.925110 
	C238.184387,267.771484 226.248169,267.234802 214.816376,264.529327 
	C208.806702,263.107056 202.992630,261.104095 196.273926,260.947754 
	C199.229874,256.016663 202.647125,251.108276 206.334152,246.030548 
	C208.569138,245.680435 210.554642,245.232880 212.494873,245.380463 
	C215.512634,245.609985 218.515442,246.160553 221.496155,246.725189 
	C226.817505,247.733200 232.170959,248.642517 237.415665,249.969727 
	C248.749268,252.837799 260.157318,255.530624 271.257080,259.147766 
	C275.984253,260.688232 280.632812,262.103699 285.460693,263.332458 
	C294.477936,265.627441 303.174744,269.240540 311.913086,272.547882 
	C316.458038,274.268036 320.705078,277.760864 325.275330,278.132416 
	C329.287140,278.458557 331.883728,278.930023 333.507568,283.079346 
	C331.460236,283.410706 329.348145,282.921295 327.331177,283.178314 
	C321.203644,283.959106 315.112854,285.028412 308.966248,285.688354 
	C308.516754,285.074615 308.108795,284.757935 307.700806,284.441223 
	C307.464935,284.956726 307.229065,285.472260 306.619629,285.989624 
	C305.498993,285.991882 304.751923,285.992279 304.004883,285.992676 
z"/>
<path fill="#3D9FD4" opacity="1.000000" stroke="#3D9FD4" 
	d="
M336.999176,284.001221 
	C351.208801,284.978241 365.417358,285.970734 379.629120,286.915710 
	C381.774902,287.058411 383.935425,286.979675 386.542999,287.004120 
	C389.734497,287.660645 392.451080,288.596313 395.222290,288.804291 
	C396.071228,288.868011 397.629913,287.067047 397.903656,285.895660 
	C399.126068,280.664612 400.001282,275.352417 401.680115,269.897217 
	C404.485809,270.614197 406.701294,271.338806 408.725891,272.420715 
	C418.480042,277.633179 428.182678,282.941956 438.080383,288.484070 
	C439.836884,289.843628 441.416626,290.935730 442.958252,292.384583 
	C442.502350,294.155121 442.084625,295.568878 441.554443,297.363190 
	C440.081696,293.250702 437.926361,293.046478 435.357330,296.355743 
	C435.080872,295.335602 434.913086,294.716461 434.897827,294.660126 
	C433.158112,294.944794 431.491730,295.655670 429.998901,295.390259 
	C420.642670,293.726837 411.330933,291.814819 401.991394,290.054657 
	C398.975647,289.486298 397.943390,290.875946 397.925018,293.926727 
	C397.898285,298.371277 397.229645,302.808014 397.060699,307.256683 
	C396.856720,312.627289 396.888916,318.006866 396.818909,323.382568 
	C391.819366,324.550873 386.819794,325.719177 381.622864,326.622681 
	C382.691956,323.504150 382.453735,323.252991 375.818756,320.889709 
	C377.248688,320.309784 378.388489,319.847504 378.913574,319.634552 
	C371.950500,314.153931 365.865204,309.364197 359.727173,304.532990 
	C359.896027,304.462402 360.447998,304.231720 361.053864,304.140808 
	C361.194305,304.330109 361.280884,304.379669 361.367493,304.429199 
	C361.245361,304.286133 361.123230,304.143066 360.953339,303.664490 
	C359.378326,301.468445 358.146179,299.200531 356.260620,297.834564 
	C352.660248,295.226318 348.559174,293.315613 344.910736,290.765167 
	C342.080505,288.786713 339.622589,286.275574 336.999176,284.001221 
z"/>
<path fill="#3995CF" opacity="1.000000" stroke="#3995CF" 
	d="
M361.000000,304.001038 
	C360.447998,304.231720 359.896027,304.462402 359.727173,304.532990 
	C365.865204,309.364197 371.950500,314.153931 378.913574,319.634552 
	C378.388489,319.847504 377.248688,320.309784 375.818756,320.889709 
	C382.453735,323.252991 382.691956,323.504150 381.228699,326.600403 
	C370.953247,329.606110 360.874634,332.369354 350.399536,335.089722 
	C348.921387,333.450562 348.070038,331.619659 346.721313,330.295380 
	C336.623260,320.380249 326.447021,310.544312 316.252197,300.728302 
	C311.652466,296.299469 306.954407,291.972778 302.150452,287.297974 
	C302.469452,286.676971 302.938904,286.357727 303.706604,286.015564 
	C304.751923,285.992279 305.498993,285.991882 306.955414,285.993378 
	C308.112457,285.991974 308.560089,285.988678 309.007751,285.985352 
	C315.112854,285.028412 321.203644,283.959106 327.331177,283.178314 
	C329.348145,282.921295 331.460236,283.410706 333.770081,283.284485 
	C334.870636,283.166504 335.729889,283.322845 336.794189,283.740204 
	C339.622589,286.275574 342.080505,288.786713 344.910736,290.765167 
	C348.559174,293.315613 352.660248,295.226318 356.260620,297.834564 
	C358.146179,299.200531 359.378326,301.468445 360.952789,303.664490 
	C361.000000,304.000000 361.000000,304.001068 361.000000,304.001038 
z"/>
<path fill="#484597" opacity="1.000000" stroke="#484597" 
	d="
M437.903625,288.216553 
	C428.182678,282.941956 418.480042,277.633179 408.725891,272.420715 
	C406.701294,271.338806 404.485809,270.614197 402.040649,269.689514 
	C401.295013,269.024902 400.867035,268.395630 400.268188,267.543091 
	C402.067627,255.823441 404.037933,244.327042 406.091125,232.437515 
	C414.896790,235.591049 423.619568,239.137726 432.680267,242.788971 
	C437.544098,245.061249 442.070007,247.228943 446.801117,250.086884 
	C447.605988,255.525513 443.702881,259.487274 445.186920,264.767883 
	C445.913574,267.353394 442.894928,270.887451 441.882507,274.090485 
	C440.408875,278.752625 439.216125,283.503510 437.903625,288.216553 
z"/>
<path fill="#3D93C6" opacity="1.000000" stroke="#3D93C6" 
	d="
M397.211304,323.401794 
	C396.888916,318.006866 396.856720,312.627289 397.060699,307.256683 
	C397.229645,302.808014 397.898285,298.371277 397.925018,293.926727 
	C397.943390,290.875946 398.975647,289.486298 401.991394,290.054657 
	C411.330933,291.814819 420.642670,293.726837 429.998901,295.390259 
	C431.491730,295.655670 433.158112,294.944794 434.897827,294.660126 
	C434.913086,294.716461 435.080872,295.335602 435.357330,296.355743 
	C437.926361,293.046478 440.081696,293.250702 441.554443,297.363190 
	C442.084625,295.568878 442.502350,294.155121 443.310913,292.416199 
	C447.435303,294.115417 451.168915,296.139862 455.102936,298.437836 
	C460.714874,302.078400 466.059937,305.559814 471.568085,308.760529 
	C474.046875,310.200958 476.851227,311.081024 479.507874,312.215332 
	C468.966766,313.416321 458.395111,314.399078 447.891479,315.868134 
	C431.105133,318.215973 414.363953,320.886749 397.211304,323.401794 
z"/>
<path fill="#723BBD" opacity="1.000000" stroke="#723BBD" 
	d="
M479.929993,312.355896 
	C476.851227,311.081024 474.046875,310.200958 471.568085,308.760529 
	C466.059937,305.559814 460.714874,302.078400 455.170593,298.048157 
	C456.814270,292.301422 458.450714,287.163513 460.400513,282.147400 
	C463.167450,275.029114 466.165070,268.000519 469.064148,260.933624 
	C480.657104,267.726898 492.250061,274.520172 503.732544,281.810608 
	C502.561615,287.861633 501.420349,293.401642 500.462067,298.973114 
	C499.381256,305.256927 496.289856,309.804718 490.018494,311.819061 
	C486.796356,312.044861 483.574219,312.270630 479.929993,312.355896 
z"/>
<path fill="#F23C42" opacity="1.000000" stroke="#F23C42" 
	d="
M548.051392,725.655029 
	C546.122498,725.997559 544.244934,725.997559 541.534424,725.997559 
	C543.340881,722.337830 544.647400,719.690979 546.142700,716.661621 
	C542.851685,716.006775 540.039612,715.823975 537.545532,714.837402 
	C535.360107,713.972961 532.275146,712.543457 531.798889,710.769775 
	C530.700256,706.678528 528.264038,706.847839 525.059448,706.924133 
	C542.883240,697.241150 557.582764,683.874695 570.714111,668.138672 
	C577.711304,665.754883 584.429565,663.584778 591.090942,661.252380 
	C593.553284,660.390198 595.881775,659.145996 598.631714,658.413391 
	C597.660645,661.500549 596.329102,664.250244 594.997559,667.000000 
	C591.102051,672.705566 587.412781,678.566284 583.264893,684.082092 
	C576.235779,693.429504 569.123169,702.730835 561.638062,711.711853 
	C557.559021,716.606140 552.641907,720.801819 548.051392,725.655029 
z"/>
<path fill="#FD7835" opacity="1.000000" stroke="#FD7835" 
	d="
M701.000000,593.002441 
	C705.193542,595.817810 702.345642,599.837708 702.707214,603.293213 
	C702.990967,606.004944 702.829468,608.760254 703.015381,611.486023 
	C703.279541,615.358948 703.935486,619.220154 703.969543,623.090454 
	C704.035156,630.549805 703.914246,638.018127 703.567871,645.468628 
	C703.482849,647.296204 702.229797,649.069397 701.177856,651.711060 
	C702.685913,652.870056 704.563782,654.313293 706.759705,655.891296 
	C698.690979,662.575378 690.304199,669.124695 681.292236,675.835266 
	C679.871704,674.186401 678.360779,672.353760 678.417175,670.570557 
	C678.575317,665.565918 680.639893,660.313293 679.646301,655.649841 
	C677.978943,647.823730 681.592407,640.354797 679.380493,632.385498 
	C677.815674,626.747559 679.669678,620.160767 679.998779,613.626221 
	C680.666687,611.502441 681.333374,609.750000 682.276855,607.802368 
	C688.702454,602.738892 694.851196,597.870667 701.000000,593.002441 
z"/>
<path fill="#FD5A45" opacity="1.000000" stroke="#FD5A45" 
	d="
M413.375671,693.006592 
	C394.535217,693.236328 376.609192,689.347717 358.675598,685.689575 
	C351.921387,684.311829 345.344177,682.081909 338.630157,680.475037 
	C337.577332,680.223083 336.224457,681.224731 334.920837,682.042480 
	C334.346649,680.072632 333.861969,677.707031 333.306732,674.997314 
	C347.255432,670.610718 361.064026,666.950928 374.318970,661.851807 
	C382.690460,658.631348 387.806885,660.385986 394.030365,666.551941 
	C403.307159,675.742981 414.050629,683.453735 424.349854,692.059326 
	C424.529694,692.324280 424.283295,692.702698 423.696228,692.858887 
	C420.737793,693.015747 418.366455,693.016418 415.995117,693.017090 
	C415.246704,693.013367 414.498291,693.009583 413.375671,693.006592 
z"/>
<path fill="#1A319D" opacity="1.000000" stroke="#1A319D" 
	d="
M250.370789,595.004272 
	C250.334152,592.276245 250.666489,589.552490 251.000336,586.415588 
	C251.946884,583.111572 252.891937,580.220764 253.938232,577.020142 
	C263.718628,582.853394 273.004089,588.391479 282.645996,593.964783 
	C290.717102,597.526611 298.452637,601.008728 306.136536,604.601135 
	C309.354340,606.105469 312.462616,607.844177 315.812256,609.741211 
	C313.765106,617.133179 311.526459,624.260254 309.076050,631.692383 
	C307.618896,633.009644 306.373535,634.021790 304.709839,635.373901 
	C297.088043,632.965454 290.256226,627.830688 284.078766,621.669312 
	C283.387238,620.979675 282.597046,620.182129 281.710724,619.926697 
	C273.567047,617.579529 269.353973,610.495911 263.603302,605.230591 
	C259.573792,601.541138 255.045380,598.396545 250.370789,595.004272 
z"/>
<path fill="#FD5C3C" opacity="1.000000" stroke="#FD5C3C" 
	d="
M616.002441,681.007324 
	C617.344849,678.594299 618.687256,676.181274 620.383606,673.359863 
	C623.586914,669.381653 626.851379,666.063965 629.203735,662.192139 
	C635.031860,652.599548 640.442993,642.753662 646.290161,632.813171 
	C647.703857,630.744507 648.848999,628.872253 650.201477,627.262817 
	C651.275818,627.682434 652.142761,627.839233 653.006836,628.396118 
	C653.004272,629.863342 653.004578,630.930481 652.963989,632.370178 
	C651.953735,638.296265 650.978455,643.848694 650.025757,649.405029 
	C649.942444,649.890930 650.044556,650.405823 649.997314,650.901245 
	C649.675293,654.277954 649.436096,657.666809 648.977600,661.025391 
	C648.413513,665.157227 647.551025,669.249146 647.017944,673.384155 
	C646.262512,679.243469 645.310608,685.119141 645.199036,691.002136 
	C645.142761,693.972290 642.292175,697.479431 646.075745,700.134766 
	C637.619019,705.415710 629.162354,710.696655 620.340088,715.505493 
	C619.974426,704.940308 619.974426,694.847229 619.974426,685.290833 
	C618.650940,683.863525 617.326660,682.435425 616.002441,681.007324 
z"/>
<path fill="#3995CF" opacity="1.000000" stroke="#3995CF" 
	d="
M185.885590,282.294006 
	C190.318848,282.251862 194.607574,282.116760 198.732056,282.875092 
	C204.387619,283.914886 209.857452,285.977112 215.516922,286.980621 
	C224.497665,288.573090 233.594116,289.504486 242.593018,291.006622 
	C247.596664,291.841797 252.501907,293.266449 257.726379,294.715424 
	C247.147583,299.153351 236.293961,303.301270 225.220764,307.720093 
	C219.595505,310.338654 214.189819,312.686310 208.344086,314.688416 
	C205.041916,311.191376 201.086121,308.778778 197.591583,311.375336 
	C194.540726,313.642212 191.910507,313.226166 189.026672,312.925476 
	C185.275650,312.534363 181.578430,311.626984 177.858063,310.941803 
	C180.461334,301.494293 183.064606,292.046814 185.885590,282.294006 
z"/>
<path fill="#9A36DA" opacity="1.000000" stroke="#9A36DA" 
	d="
M494.316376,212.862701 
	C493.717865,212.085327 492.865753,210.696274 493.202972,210.286835 
	C498.457123,203.908035 494.161316,195.296295 498.259705,188.782501 
	C502.004791,182.830292 501.734070,176.001663 503.254852,169.548523 
	C504.308502,165.077621 507.047607,161.015610 508.896698,156.712067 
	C509.339996,155.680313 509.298645,154.418564 509.376465,153.255646 
	C509.607361,149.804657 509.786560,146.350174 509.991150,142.531189 
	C524.041199,145.573654 538.088318,148.972946 552.126709,152.407806 
	C553.239197,152.680023 554.291199,153.199127 555.662354,153.827560 
	C542.886902,160.769852 531.150452,169.284241 521.034668,179.972839 
	C518.411804,182.744232 515.864807,185.587494 513.135010,188.698120 
	C506.863342,196.901245 500.739685,204.804001 494.316376,212.862701 
z"/>
<path fill="#CE4FF7" opacity="1.000000" stroke="#CE4FF7" 
	d="
M624.775879,184.758713 
	C625.312012,187.159927 625.051086,189.620041 626.036072,191.384491 
	C636.270813,209.716644 646.723755,227.926819 657.053345,246.206390 
	C657.929932,247.757584 658.353577,249.564728 658.990479,251.632141 
	C655.189758,247.658981 651.533691,243.166733 647.557068,238.978851 
	C631.346497,221.907288 615.254761,204.713242 598.663513,188.017273 
	C591.561035,180.870010 583.343018,174.831268 575.332397,168.140839 
	C571.050171,164.608337 567.067383,161.223816 563.027100,157.503418 
	C569.311523,159.447815 575.850891,161.297104 581.955688,164.094788 
	C596.266846,170.653275 610.369934,177.665863 624.775879,184.758713 
z"/>
<path fill="#FD6D38" opacity="1.000000" stroke="#FD6D38" 
	d="
M653.004883,631.997559 
	C653.004578,630.930481 653.004272,629.863342 653.329712,628.252808 
	C656.104492,627.099304 657.638916,623.441711 661.099304,626.016602 
	C664.830444,628.792908 669.896240,626.432312 669.548462,621.863281 
	C669.187622,617.122742 672.343262,616.427734 675.243042,615.155518 
	C676.714050,614.510132 678.405701,614.367554 679.997559,613.997559 
	C679.669678,620.160767 677.815674,626.747559 679.380493,632.385498 
	C681.592407,640.354797 677.978943,647.823730 679.646301,655.649841 
	C680.639893,660.313293 678.575317,665.565918 678.417175,670.570557 
	C678.360779,672.353760 679.871704,674.186401 681.057739,676.064453 
	C675.914368,680.087219 670.380493,684.042114 664.192139,687.787231 
	C663.033081,684.495178 662.098572,681.410828 662.113281,678.331116 
	C662.144165,671.877136 662.152527,665.346069 663.118652,658.990967 
	C664.686829,648.675537 659.369812,640.823181 654.831909,632.604553 
	C654.604004,632.191772 653.630981,632.190491 653.004883,631.997559 
z"/>
<path fill="#FD9C2C" opacity="1.000000" stroke="#FD9C2C" 
	d="
M745.188599,524.915710 
	C760.855957,545.695007 765.086609,568.456848 756.314697,593.104309 
	C753.888550,599.921204 749.989929,606.213928 746.162659,612.711548 
	C744.705627,609.718323 743.182678,606.775513 743.116760,603.800476 
	C742.840332,591.319092 743.198730,578.823181 742.888245,566.343445 
	C742.784729,562.181580 741.288879,558.066284 740.624023,553.898682 
	C740.440674,552.748901 740.981018,551.490601 741.149292,550.276550 
	C741.571350,547.232544 743.332825,543.414978 742.126648,541.282104 
	C738.318237,534.547424 743.695068,530.227173 745.188599,524.915710 
z"/>
<path fill="#FD9033" opacity="1.000000" stroke="#FD9033" 
	d="
M729.000000,610.000000 
	C728.447449,605.463867 727.980286,600.914612 727.283447,596.400757 
	C727.104858,595.243530 726.164551,593.234619 725.635803,593.254517 
	C721.513794,593.409851 722.369446,590.491333 722.408875,588.274048 
	C722.506165,582.812134 723.557312,577.233765 722.732239,571.934631 
	C722.153381,568.216980 719.117310,564.881836 717.032471,561.111755 
	C718.283386,557.437683 720.431213,552.954468 721.259644,548.239441 
	C722.321716,542.193909 722.337891,535.963074 722.775818,529.809998 
	C723.121216,524.957886 723.420410,520.102417 723.746155,515.248901 
	C723.801453,514.425842 724.243652,513.394470 723.902344,512.816467 
	C721.217651,508.270752 723.490601,504.866821 726.520020,501.318665 
	C730.447815,505.184052 734.138977,509.264923 737.547729,513.753296 
	C736.843506,515.808411 736.141235,517.440063 736.047119,519.106140 
	C735.562744,527.679810 735.616455,536.301575 734.739014,544.830078 
	C733.940918,552.586853 733.056763,560.210510 735.038086,567.622681 
	C733.769531,570.160095 733.409973,572.859497 732.640564,575.436646 
	C731.445679,579.439331 732.703735,583.305603 732.752319,587.217163 
	C732.832825,593.686462 731.730347,600.181641 730.924011,606.640747 
	C730.776550,607.822144 729.665955,608.883301 729.000000,610.000000 
z"/>
<path fill="#FD6637" opacity="1.000000" stroke="#FD6637" 
	d="
M666.081787,480.963257 
	C665.940186,476.399475 665.798645,471.835724 665.394897,467.130646 
	C666.035950,462.562775 666.939148,458.136230 668.300415,453.448334 
	C676.222656,458.700836 683.686768,464.214691 690.998657,470.068481 
	C689.616516,472.901764 687.638550,475.296997 687.296143,477.906769 
	C686.243347,485.931305 685.798218,494.036560 685.167358,502.114349 
	C685.078613,503.251068 685.059875,504.470825 685.371155,505.547333 
	C686.554077,509.637817 686.631226,513.331116 682.815491,516.270874 
	C682.204590,516.741516 682.253601,518.068726 681.682983,519.155640 
	C678.265625,520.546082 675.162781,521.780945 672.042236,522.570068 
	C671.687012,517.377502 671.673523,512.580139 670.942627,507.894623 
	C669.537048,498.884033 667.725159,489.936798 666.081787,480.963257 
z"/>
<path fill="#FD942E" opacity="1.000000" stroke="#FD942E" 
	d="
M728.999146,610.443665 
	C729.665955,608.883301 730.776550,607.822144 730.924011,606.640747 
	C731.730347,600.181641 732.832825,593.686462 732.752319,587.217163 
	C732.703735,583.305603 731.445679,579.439331 732.640564,575.436646 
	C733.409973,572.859497 733.769531,570.160095 735.038086,567.622681 
	C733.056763,560.210510 733.940918,552.586853 734.739014,544.830078 
	C735.616455,536.301575 735.562744,527.679810 736.047119,519.106140 
	C736.141235,517.440063 736.843506,515.808411 737.665771,514.070801 
	C740.404663,517.386414 742.743042,520.792114 745.135010,524.556763 
	C743.695068,530.227173 738.318237,534.547424 742.126648,541.282104 
	C743.332825,543.414978 741.571350,547.232544 741.149292,550.276550 
	C740.981018,551.490601 740.440674,552.748901 740.624023,553.898682 
	C741.288879,558.066284 742.784729,562.181580 742.888245,566.343445 
	C743.198730,578.823181 742.840332,591.319092 743.116760,603.800476 
	C743.182678,606.775513 744.705627,609.718323 745.872253,612.883362 
	C741.705444,618.984863 737.224792,624.879028 732.453796,630.915527 
	C726.616760,625.039246 728.237427,617.895813 728.999146,610.443665 
z"/>
<path fill="#FD4F3A" opacity="1.000000" stroke="#FD4F3A" 
	d="
M615.698547,681.152710 
	C617.326660,682.435425 618.650940,683.863525 619.974426,685.290833 
	C619.974426,694.847229 619.974426,704.940308 619.984375,715.446289 
	C607.945312,722.982544 595.896301,730.105896 583.502930,737.355347 
	C582.949707,731.332153 582.686584,725.183655 582.588684,719.032532 
	C582.573364,718.072083 583.078735,716.890564 583.734314,716.163940 
	C594.250244,704.508179 604.829651,692.909607 615.698547,681.152710 
z"/>
<path fill="#36B3F3" opacity="1.000000" stroke="#36B3F3" 
	d="
M412.009674,506.990997 
	C405.684814,514.814941 397.389496,517.577515 387.697083,516.255005 
	C389.721313,515.914795 391.645752,515.814392 393.668091,515.708862 
	C393.668091,497.974426 393.668091,480.784271 393.668091,463.257263 
	C391.227234,463.143799 389.104889,463.045105 386.982513,462.946411 
	C396.916687,460.854980 404.903473,464.419983 411.663330,472.136963 
	C411.417755,474.444916 410.983490,476.076569 411.027679,477.695190 
	C411.294189,487.462128 411.670258,497.226044 412.009674,506.990997 
z"/>
<path fill="#FD6637" opacity="1.000000" stroke="#FD6637" 
	d="
M652.963989,632.370178 
	C653.630981,632.190491 654.604004,632.191772 654.831909,632.604553 
	C659.369812,640.823181 664.686829,648.675537 663.118652,658.990967 
	C662.152527,665.346069 662.144165,671.877136 662.113281,678.331116 
	C662.098572,681.410828 663.033081,684.495178 663.847046,687.828918 
	C658.354187,692.036499 652.551819,695.992554 646.412598,700.041687 
	C642.292175,697.479431 645.142761,693.972290 645.199036,691.002136 
	C645.310608,685.119141 646.262512,679.243469 647.017944,673.384155 
	C647.551025,669.249146 648.413513,665.157227 648.977600,661.025391 
	C649.436096,657.666809 649.675293,654.277954 649.997314,650.901245 
	C650.044556,650.405823 649.942444,649.890930 650.025757,649.405029 
	C650.978455,643.848694 651.953735,638.296265 652.963989,632.370178 
z"/>
<path fill="#8238CA" opacity="1.000000" stroke="#8238CA" 
	d="
M490.462341,311.860413 
	C496.289856,309.804718 499.381256,305.256927 500.462067,298.973114 
	C501.420349,293.401642 502.561615,287.861633 503.938232,282.087280 
	C504.904449,281.978485 505.692505,281.890594 506.184418,282.230927 
	C519.731079,291.601929 533.247559,301.016571 546.936462,310.725708 
	C534.506653,311.020782 521.908447,310.919220 509.312683,311.048096 
	C503.174927,311.110870 497.041565,311.603638 490.462341,311.860413 
z"/>
<path fill="#2BA0F0" opacity="1.000000" stroke="#2BA0F0" 
	d="
M464.986053,463.955475 
	C470.424622,461.266663 475.918579,462.260712 481.365234,464.125031 
	C480.874664,466.114136 480.070587,467.683929 480.059235,469.259460 
	C479.959351,483.083405 479.945648,496.908905 480.084015,510.732208 
	C480.098175,512.147583 481.274567,513.551331 481.911682,514.960510 
	C476.530243,517.448914 471.044006,517.127808 465.621002,515.205444 
	C466.152863,514.023254 466.938843,513.210022 466.943695,512.392212 
	C467.020538,499.455383 467.127258,486.515778 466.904755,473.582336 
	C466.849396,470.363312 465.656250,467.163910 464.986053,463.955475 
z"/>
<path fill="#AD33E7" opacity="1.000000" stroke="#AD33E7" 
	d="
M691.150940,469.728516 
	C683.686768,464.214691 676.222656,458.700836 668.437683,453.083984 
	C669.107178,444.962555 670.097473,436.944122 671.192932,428.507568 
	C678.669983,437.193512 686.328918,446.083160 693.334473,455.460876 
	C700.608948,465.198303 707.268250,475.396393 714.136597,485.434052 
	C714.664612,486.205658 714.717834,487.302216 714.673096,488.528503 
	C706.619995,482.449005 698.885498,476.088745 691.150940,469.728516 
z"/>
<path fill="#358ACC" opacity="1.000000" stroke="#358ACC" 
	d="
M177.620483,311.234711 
	C181.578430,311.626984 185.275650,312.534363 189.026672,312.925476 
	C191.910507,313.226166 194.540726,313.642212 197.591583,311.375336 
	C201.086121,308.778778 205.041916,311.191376 207.953415,314.694397 
	C200.765167,320.825073 193.527542,326.604095 186.136520,332.683685 
	C181.489609,337.197266 176.996094,341.410278 172.223328,345.801392 
	C173.757004,334.495544 175.569946,323.011597 177.620483,311.234711 
z"/>
<path fill="#2BA0F0" opacity="1.000000" stroke="#2BA0F0" 
	d="
M550.990662,462.972687 
	C554.824341,463.145142 558.657959,463.317627 562.481567,464.002258 
	C562.314392,466.315887 562.025757,468.117035 562.020630,469.918976 
	C561.977356,485.164429 561.985840,500.410034 561.978760,515.655579 
	C558.527649,515.924927 555.076477,516.194275 551.592529,515.955811 
	C551.706482,513.317749 551.973145,511.187836 551.980164,509.057068 
	C552.020874,496.787384 552.066162,484.516907 551.953918,472.248138 
	C551.925598,469.153625 551.327148,466.064362 550.990662,462.972687 
z"/>
<path fill="#1578E9" opacity="1.000000" stroke="#1578E9" 
	d="
M541.998169,513.024841 
	C523.823608,503.631836 523.033203,479.116302 541.079224,466.780884 
	C542.102539,468.368073 542.941589,469.844635 542.921021,471.309143 
	C542.868286,475.068787 542.246460,478.820160 542.188293,482.580048 
	C542.031311,492.726868 542.049500,502.876404 541.998169,513.024841 
z"/>
<path fill="#1578E9" opacity="1.000000" stroke="#1578E9" 
	d="
M379.954895,513.815735 
	C370.040436,509.305389 365.021240,501.252899 364.485168,490.721741 
	C363.931976,479.853973 368.845276,471.530670 378.621643,466.361633 
	C378.985626,480.519714 378.955841,494.278259 379.042297,508.036072 
	C379.054413,509.964447 379.636597,511.889282 379.954895,513.815735 
z"/>
<path fill="#1E8AED" opacity="1.000000" stroke="#1E8AED" 
	d="
M542.235840,513.285950 
	C542.049500,502.876404 542.031311,492.726868 542.188293,482.580048 
	C542.246460,478.820160 542.868286,475.068787 542.921021,471.309143 
	C542.941589,469.844635 542.102539,468.368073 541.374756,466.660461 
	C544.131104,465.255981 547.167664,464.088074 550.597473,462.946411 
	C551.327148,466.064362 551.925598,469.153625 551.953918,472.248138 
	C552.066162,484.516907 552.020874,496.787384 551.980164,509.057068 
	C551.973145,511.187836 551.706482,513.317749 551.262451,515.747192 
	C548.134644,515.213196 545.304138,514.380127 542.235840,513.285950 
z"/>
<path fill="#36B3F3" opacity="1.000000" stroke="#36B3F3" 
	d="
M562.325073,515.633911 
	C561.985840,500.410034 561.977356,485.164429 562.020630,469.918976 
	C562.025757,468.117035 562.314392,466.315887 562.788269,464.229675 
	C565.623047,465.099182 568.141052,466.253387 570.834839,468.159210 
	C571.032166,482.978394 571.053833,497.045990 571.075439,511.113556 
	C568.274048,512.613159 565.472717,514.112732 562.325073,515.633911 
z"/>
<path fill="#36B3F3" opacity="1.000000" stroke="#36B3F3" 
	d="
M482.274414,514.968384 
	C481.274567,513.551331 480.098175,512.147583 480.084015,510.732208 
	C479.945648,496.908905 479.959351,483.083405 480.059235,469.259460 
	C480.070587,467.683929 480.874664,466.114136 481.599121,464.296936 
	C483.725616,464.989868 485.564056,465.927582 487.892334,467.386993 
	C488.588898,470.014893 488.918488,472.117432 488.982147,474.227936 
	C489.348846,486.382629 489.652588,498.539215 489.977692,510.695160 
	C487.530823,512.122192 485.083984,513.549255 482.274414,514.968384 
z"/>
<path fill="#1578E9" opacity="1.000000" stroke="#1578E9" 
	d="
M458.045776,511.736115 
	C442.368835,501.699371 442.054810,479.917480 457.700806,467.865112 
	C458.329956,478.576691 458.792053,488.996857 458.942810,499.421509 
	C459.002106,503.521210 458.365479,507.630951 458.045776,511.736115 
z"/>
<path fill="#2BA0F0" opacity="1.000000" stroke="#2BA0F0" 
	d="
M386.629059,462.937561 
	C389.104889,463.045105 391.227234,463.143799 393.668091,463.257263 
	C393.668091,480.784271 393.668091,497.974426 393.668091,515.708862 
	C391.645752,515.814392 389.721313,515.914795 387.347717,516.058228 
	C385.779358,515.883728 384.660248,515.666138 383.662720,515.206482 
	C387.233307,514.778259 387.088501,512.459229 386.842377,509.961975 
	C386.502686,506.515472 386.009918,503.051788 386.070648,499.604065 
	C386.256683,489.047760 386.595367,478.492096 387.053741,467.943939 
	C387.189178,464.827698 386.003448,463.660828 383.039551,463.995087 
	C384.118225,463.639648 385.196930,463.284180 386.629059,462.937561 
z"/>
<path fill="#1E8AED" opacity="1.000000" stroke="#1E8AED" 
	d="
M458.248596,512.019287 
	C458.365479,507.630951 459.002106,503.521210 458.942810,499.421509 
	C458.792053,488.996857 458.329956,478.576691 457.993958,467.742523 
	C460.083252,466.203430 462.171143,465.076538 464.622559,463.952576 
	C465.656250,467.163910 466.849396,470.363312 466.904755,473.582336 
	C467.127258,486.515778 467.020538,499.455383 466.943695,512.392212 
	C466.938843,513.210022 466.152863,514.023254 465.334412,514.951782 
	C462.776184,514.144165 460.613831,513.223328 458.248596,512.019287 
z"/>
<path fill="#1E8AED" opacity="1.000000" stroke="#1E8AED" 
	d="
M382.707184,464.004852 
	C386.003448,463.660828 387.189178,464.827698 387.053741,467.943939 
	C386.595367,478.492096 386.256683,489.047760 386.070648,499.604065 
	C386.009918,503.051788 386.502686,506.515472 386.842377,509.961975 
	C387.088501,512.459229 387.233307,514.778259 383.391785,514.998779 
	C382.166718,514.755127 381.334167,514.477112 380.228271,514.007446 
	C379.636597,511.889282 379.054413,509.964447 379.042297,508.036072 
	C378.955841,494.278259 378.985626,480.519714 378.963562,466.278381 
	C380.090729,465.201813 381.232788,464.608215 382.707184,464.004852 
z"/>
<path fill="#44C5F6" opacity="1.000000" stroke="#44C5F6" 
	d="
M490.278961,510.586273 
	C489.652588,498.539215 489.348846,486.382629 488.982147,474.227936 
	C488.918488,472.117432 488.588898,470.014893 488.204468,467.544312 
	C501.478149,474.335968 504.729858,494.212036 494.444031,506.659271 
	C493.296478,508.047943 491.874786,509.210144 490.278961,510.586273 
z"/>
<path fill="#44C5F6" opacity="1.000000" stroke="#44C5F6" 
	d="
M571.398926,511.016083 
	C571.053833,497.045990 571.032166,482.978394 571.024719,468.440613 
	C585.563843,477.404449 585.917114,499.603882 571.398926,511.016083 
z"/>
<path fill="#44C5F6" opacity="1.000000" stroke="#44C5F6" 
	d="
M412.307190,506.832947 
	C411.670258,497.226044 411.294189,487.462128 411.027679,477.695190 
	C410.983490,476.076569 411.417755,474.444916 411.803864,472.444458 
	C420.910553,481.616638 421.166351,495.715942 412.307190,506.832947 
z"/>
<path fill="#1D35A8" opacity="1.000000" stroke="#1D35A8" 
	d="
M168.556671,517.488281 
	C168.769714,517.978271 168.884857,518.758423 168.972961,519.841187 
	C168.783554,519.355408 168.621170,518.566895 168.556671,517.488281 
z"/>
<path fill="#1C2D9F" opacity="1.000000" stroke="#1C2D9F" 
	d="
M170.176788,537.348999 
	C170.384125,537.548523 170.535797,538.064758 170.527039,538.744019 
	C170.284760,538.493225 170.202942,538.079529 170.176788,537.348999 
z"/>
<path fill="#FD7835" opacity="1.000000" stroke="#FD7835" 
	d="
M690.998657,470.068451 
	C698.885498,476.088745 706.619995,482.449005 714.677734,488.902466 
	C715.962402,490.045746 716.923767,491.095856 718.019409,492.420441 
	C713.206604,497.594177 708.259583,502.493408 702.837158,507.836792 
	C696.908752,511.188110 691.455566,514.095276 685.706848,517.142456 
	C684.273376,517.854980 683.135498,518.427490 681.997559,519.000000 
	C682.253601,518.068726 682.204590,516.741516 682.815491,516.270874 
	C686.631226,513.331116 686.554077,509.637817 685.371155,505.547333 
	C685.059875,504.470825 685.078613,503.251068 685.167358,502.114349 
	C685.798218,494.036560 686.243347,485.931305 687.296143,477.906769 
	C687.638550,475.296997 689.616516,472.901764 690.998657,470.068451 
z"/>
<path fill="#FD4F3A" opacity="1.000000" stroke="#FD4F3A" 
	d="
M415.996887,693.403137 
	C418.366455,693.016418 420.737793,693.015747 423.552917,693.033325 
	C423.969482,695.269287 428.175140,698.036926 422.760132,699.755249 
	C422.382477,698.800110 422.003204,697.840820 421.632355,696.902893 
	C420.400024,697.554810 419.172302,698.204346 417.351440,699.167664 
	C416.826080,697.079041 416.412354,695.434143 415.996887,693.403137 
z"/>
<path fill="#5542A3" opacity="1.000000" stroke="#5542A3" 
	d="
M469.006653,260.705444 
	C466.165070,268.000519 463.167450,275.029114 460.400513,282.147400 
	C458.450714,287.163513 456.814270,292.301422 454.970215,297.774597 
	C451.168915,296.139862 447.435303,294.115417 443.349060,292.059387 
	C441.416626,290.935730 439.836884,289.843628 438.080383,288.484070 
	C439.216125,283.503510 440.408875,278.752625 441.882507,274.090485 
	C442.894928,270.887451 445.913574,267.353394 445.186920,264.767883 
	C443.702881,259.487274 447.605988,255.525513 447.019287,250.359894 
	C451.711792,251.986725 456.391357,254.030838 461.427429,256.087860 
	C463.905304,257.406891 466.026642,258.712982 468.494293,260.019226 
	C468.840607,260.019318 468.949158,260.477264 469.006653,260.705444 
z"/>
<path fill="#213FB7" opacity="1.000000" stroke="#213FB7" 
	d="
M256.047546,564.617615 
	C255.125458,568.148254 254.244095,571.296509 253.142288,575.232178 
	C246.258209,569.154907 239.197037,563.759644 233.164139,557.390442 
	C225.009079,548.780762 216.873306,539.961182 210.104385,530.271118 
	C197.087891,511.637268 186.069611,491.776459 177.985352,470.423035 
	C175.634354,464.213196 173.376617,457.968048 171.039856,451.369568 
	C173.888626,454.052765 176.694305,457.185303 179.671310,460.145599 
	C202.887115,483.231262 226.145432,506.274200 249.361496,529.359619 
	C252.066742,532.049561 254.716675,534.815491 257.167175,537.735107 
	C259.223328,540.184937 261.125946,540.241821 263.650635,538.049561 
	C261.356934,546.741821 258.722595,555.488525 256.047546,564.617615 
z"/>
<path fill="#FD4A38" opacity="1.000000" stroke="#FD4A38" 
	d="
M454.843445,745.397949 
	C458.729919,747.241821 458.563843,749.790344 457.173920,752.867920 
	C454.862152,751.326355 452.833191,750.010315 450.855896,748.620789 
	C450.496490,748.368164 450.041962,747.697449 450.148926,747.417175 
	C451.866608,742.915100 448.732178,739.528137 446.303223,734.589233 
	C451.845032,736.712830 455.922485,738.275269 459.999939,739.837769 
	C459.923950,740.398315 459.847931,740.958923 459.771912,741.519470 
	C457.959534,742.060242 456.126434,742.547058 454.367004,743.225220 
	C454.191345,743.292908 454.464111,744.523987 454.843445,745.397949 
z"/>
<path fill="#FD7A3C" opacity="1.000000" stroke="#FD7A3C" 
	d="
M686.002441,517.002441 
	C691.455566,514.095276 696.908752,511.188110 702.678467,508.141632 
	C702.944031,509.375122 702.894958,510.748016 702.841248,512.120728 
	C702.753845,514.358765 702.256348,516.677979 702.682617,518.813110 
	C703.160461,521.206665 704.472656,523.433655 705.692993,526.390137 
	C706.484009,526.577271 708.588562,527.075134 710.693115,527.572998 
	C710.578979,528.115112 710.464905,528.657288 710.350769,529.199463 
	C709.267395,529.028809 708.183960,528.858215 706.915222,528.658447 
	C705.256836,531.060181 706.323914,532.733154 707.701111,535.123352 
	C708.447510,536.418823 706.210938,539.432983 704.568054,541.380554 
	C705.031738,544.315002 705.495422,547.249512 705.968811,550.245239 
	C700.852783,550.131348 700.852783,550.131348 700.174377,554.422729 
	C709.219177,551.949219 702.714478,560.898132 706.233459,562.169556 
	C704.952271,564.922668 703.819397,567.357056 702.489929,570.213928 
	C701.824890,570.247437 700.440063,570.317200 698.205017,570.429871 
	C700.156921,574.110352 701.817322,577.241028 704.045410,581.442383 
	C703.234558,582.888245 701.538330,585.436829 700.378418,588.209717 
	C699.897644,589.358826 700.564514,590.987976 700.854736,592.700684 
	C694.851196,597.870667 688.702454,602.738892 681.930420,607.607727 
	C680.871460,606.086060 679.968872,604.530396 680.074890,603.046814 
	C680.824890,592.545410 681.867004,582.065063 682.645752,571.565369 
	C683.279907,563.014771 683.700073,554.447937 684.167542,545.885681 
	C684.325256,542.996765 684.236450,540.092834 684.435791,537.207947 
	C684.901428,530.468872 685.473450,523.737122 686.002441,517.002441 
z"/>
<path fill="#FC3D4B" opacity="1.000000" stroke="#FC3D4B" 
	d="
M646.021606,633.009521 
	C640.442993,642.753662 635.031860,652.599548 629.203735,662.192139 
	C626.851379,666.063965 623.586914,669.381653 620.393860,672.997803 
	C612.625488,668.407776 603.739563,669.632629 595.406189,667.000977 
	C596.329102,664.250244 597.660645,661.500549 598.998535,658.373901 
	C599.809448,657.085449 600.614075,656.173828 602.060364,655.092285 
	C616.113342,647.634094 629.512939,640.324097 642.964722,633.111450 
	C643.770325,632.679565 644.992981,633.025513 646.021606,633.009521 
z"/>
<path fill="#FD3D59" opacity="1.000000" stroke="#FD3D59" 
	d="
M629.992676,595.997559 
	C634.149719,585.871399 638.561462,575.840454 642.394165,565.592957 
	C646.456360,554.731567 649.968323,543.664368 654.262329,532.346802 
	C656.039185,531.667603 657.367737,531.516418 658.493286,530.957092 
	C663.014771,528.709900 667.473450,526.336548 671.973633,524.477051 
	C672.560547,543.601929 670.799377,562.097412 665.832581,580.033813 
	C662.068970,593.625183 656.706421,606.773804 651.861877,619.825806 
	C648.154358,613.688049 644.238708,608.037964 641.286133,601.922913 
	C639.667114,598.569885 637.976990,596.869446 634.295410,596.940613 
	C632.867798,596.968262 631.427307,596.331604 629.992676,595.997559 
z"/>
<path fill="#FD4255" opacity="1.000000" stroke="#FD4255" 
	d="
M629.711914,596.208069 
	C631.427307,596.331604 632.867798,596.968262 634.295410,596.940613 
	C637.976990,596.869446 639.667114,598.569885 641.286133,601.922913 
	C644.238708,608.037964 648.154358,613.688049 651.850037,620.186035 
	C651.352600,622.893372 650.673401,624.946716 649.994141,627.000000 
	C648.848999,628.872253 647.703857,630.744507 646.290161,632.813171 
	C644.992981,633.025513 643.770325,632.679565 642.964722,633.111450 
	C629.512939,640.324097 616.113342,647.634094 602.339783,654.955078 
	C605.077820,648.465210 608.220398,641.962219 611.269409,635.415771 
	C616.905518,623.314575 622.484985,611.186951 628.095154,599.073730 
	C628.511353,598.175171 628.984497,597.302979 629.711914,596.208069 
z"/>
<path fill="#FC3D4B" opacity="1.000000" stroke="#FC3D4B" 
	d="
M671.955261,524.009766 
	C667.473450,526.336548 663.014771,528.709900 658.493286,530.957092 
	C657.367737,531.516418 656.039185,531.667603 654.415405,532.013000 
	C656.766968,521.234863 659.642517,510.482117 662.194153,499.653015 
	C663.618652,493.607391 664.505127,487.434998 665.857910,481.141479 
	C667.725159,489.936798 669.537048,498.884033 670.942627,507.894623 
	C671.673523,512.580139 671.687012,517.377502 672.014404,522.818359 
	C672.004211,523.512329 671.955261,524.009766 671.955261,524.009766 
z"/>
<path fill="#3D9FD4" opacity="1.000000" stroke="#3D9FD4" 
	d="
M308.966248,285.688354 
	C308.560089,285.988678 308.112457,285.991974 307.329010,285.991547 
	C307.229065,285.472260 307.464935,284.956726 307.700806,284.441223 
	C308.108795,284.757935 308.516754,285.074615 308.966248,285.688354 
z"/>
<path fill="#3995CF" opacity="1.000000" stroke="#3995CF" 
	d="
M361.000549,304.000000 
	C361.123230,304.143066 361.245361,304.286133 361.367493,304.429199 
	C361.280884,304.379669 361.194305,304.330109 361.053864,304.140808 
	C361.000000,304.001068 361.000000,304.000000 361.000549,304.000000 
z"/>
<path fill="#FD7040" opacity="1.000000" stroke="#FD7040" 
	d="
M671.973633,524.477051 
	C671.955261,524.009766 672.004211,523.512329 672.032104,523.264038 
	C675.162781,521.780945 678.265625,520.546082 681.682983,519.155640 
	C683.135498,518.427490 684.273376,517.854980 685.706848,517.142456 
	C685.473450,523.737122 684.901428,530.468872 684.435791,537.207947 
	C684.236450,540.092834 684.325256,542.996765 684.167542,545.885681 
	C683.700073,554.447937 683.279907,563.014771 682.645752,571.565369 
	C681.867004,582.065063 680.824890,592.545410 680.074890,603.046814 
	C679.968872,604.530396 680.871460,606.086060 681.653564,607.802979 
	C681.333374,609.750000 680.666687,611.502441 679.998779,613.626221 
	C678.405701,614.367554 676.714050,614.510132 675.243042,615.155518 
	C672.343262,616.427734 669.187622,617.122742 669.548462,621.863281 
	C669.896240,626.432312 664.830444,628.792908 661.099304,626.016602 
	C657.638916,623.441711 656.104492,627.099304 653.332642,627.852722 
	C652.142761,627.839233 651.275818,627.682434 650.201538,627.262817 
	C650.673401,624.946716 651.352600,622.893372 652.043640,620.479736 
	C656.706421,606.773804 662.068970,593.625183 665.832581,580.033813 
	C670.799377,562.097412 672.560547,543.601929 671.973633,524.477051 
z"/>
</svg>